<svg width="48" height="48" viewBox="0 0 48 48" fill="none" xmlns="http://www.w3.org/2000/svg">
<path d="M29.5396 11.7402H17.8496C14.5359 11.7402 11.8496 14.4265 11.8496 17.7402V29.4102C11.8496 32.7239 14.5359 35.4102 17.8496 35.4102H29.5396C32.8533 35.4102 35.5396 32.7239 35.5396 29.4102V17.7602C35.5449 16.1655 34.9151 14.6342 33.7893 13.5047C32.6635 12.3751 31.1344 11.7402 29.5396 11.7402ZM23.8296 30.7402C19.8587 30.7402 16.6396 27.5212 16.6396 23.5502C16.6396 19.5793 19.8587 16.3602 23.8296 16.3602C27.8005 16.3602 31.0196 19.5793 31.0196 23.5502C31.0276 25.4685 30.2698 27.3106 28.9144 28.6679C27.5589 30.0252 25.7178 30.7856 23.7996 30.7802L23.8296 30.7402ZM31.4396 17.5902C30.4897 17.5902 29.7196 16.8202 29.7196 15.8702C29.7196 14.9203 30.4897 14.1502 31.4396 14.1502C32.3895 14.1502 33.1596 14.9203 33.1596 15.8702C33.1706 16.3386 32.9901 16.7911 32.6598 17.1233C32.3295 17.4554 31.878 17.6385 31.4096 17.6302L31.4396 17.5902Z" fill="#374143"/>
<path d="M23.8004 18.9805C21.2544 18.9805 19.1904 21.0444 19.1904 23.5905C19.1904 26.1365 21.2544 28.2005 23.8004 28.2005C26.3465 28.2005 28.4104 26.1365 28.4104 23.5905C28.4049 21.0467 26.3442 18.986 23.8004 18.9805Z" fill="#374143"/>
<path d="M29.28 0.769955C20.05 -1.45004 12.1 1.15996 5.71 8.21995C2.68943 11.6078 0.762004 15.8286 0.180001 20.33C0.11 20.79 0.0599999 21.24 0 21.69V25.56C0.14 26.48 0.25 27.4 0.43 28.32C2.43118 38.1061 10.3626 45.5813 20.25 47L21.71 47.18H25.39C26.39 47.03 27.33 46.93 28.29 46.74C39.1167 44.5726 46.9878 35.1797 47.2278 24.1408C47.4678 13.1018 40.0123 3.3758 29.29 0.739957L29.28 0.769955ZM38.28 29.42C38.28 34.2518 34.3718 38.1735 29.5399 38.19H17.85C15.5223 38.19 13.2901 37.2646 11.6451 35.6177C10.0002 33.9709 9.07735 31.7376 9.08 29.41L9.08 17.76C9.08 12.9164 13.0065 8.98995 17.85 8.98995H29.54C34.3835 8.98995 38.31 12.9164 38.31 17.76L38.28 29.42Z" fill="#374143"/>
</svg>
