<svg width="48" height="48" viewBox="0 0 48 48" fill="none" xmlns="http://www.w3.org/2000/svg">
<path d="M25.3929 47.1798H21.713C21.2279 47.1208 20.7419 47.0708 20.2579 46.9998C15.9659 46.3638 12.101 44.7258 8.73694 41.9758C4.36792 38.4038 1.57593 33.8558 0.434937 28.3178C0.247925 27.4068 0.142944 26.4788 0 25.5588V21.6948C0.05896 21.2408 0.110962 20.7868 0.177979 20.3348C0.852905 15.7618 2.61194 11.6498 5.71399 8.21976C12.098 1.16376 20.0509 -1.44824 29.2849 0.773756C41.5869 3.73376 49.13 15.8648 46.6849 28.2648C44.8619 37.5088 37.5349 44.8768 28.2939 46.7388C27.3359 46.9318 26.361 47.0348 25.3929 47.1798ZM19.9619 18.5098C19.9619 18.9038 19.963 19.2798 19.9619 19.6548C19.953 24.2688 19.944 28.8828 19.934 33.4968C19.932 34.0638 19.929 34.6318 19.911 35.1978C19.901 35.5328 20.0349 35.6728 20.374 35.6538C20.71 35.6348 21.049 35.6498 21.386 35.6498C22.627 35.6498 23.869 35.6408 25.111 35.6558C25.4519 35.6598 25.594 35.5388 25.564 35.2008C25.552 35.0638 25.563 34.9258 25.563 34.7878C25.563 31.8748 25.5659 28.9618 25.562 26.0498C25.5609 25.1638 25.7579 24.3468 26.34 23.6558C27.153 22.6918 28.184 22.3338 29.423 22.5748C30.6129 22.8068 31.218 23.6168 31.491 24.7208C31.5959 25.1488 31.668 25.5958 31.671 26.0348C31.688 29.0548 31.683 32.0748 31.687 35.0948C31.687 35.6318 31.704 35.6488 32.224 35.6488C33.7419 35.6508 35.2589 35.6508 36.777 35.6498C37.3319 35.6488 37.3369 35.6458 37.3369 35.0808C37.338 31.9378 37.348 28.7958 37.3269 25.6528C37.323 24.9368 37.2629 24.2118 37.137 23.5078C36.533 20.1558 34.356 18.3148 31.476 18.0948C29.2019 17.9208 27.3049 18.5708 25.937 20.4788C25.8579 20.5888 25.7579 20.6838 25.668 20.7858L25.562 20.7348C25.562 20.1548 25.5659 19.5748 25.5609 18.9958C25.557 18.5058 25.5349 18.4818 25.0339 18.4798C23.501 18.4768 21.968 18.4778 20.4349 18.4798C20.2999 18.4798 20.1639 18.4968 19.9619 18.5098ZM11.027 27.0298C11.027 29.7128 11.025 32.3948 11.028 35.0778C11.028 35.6318 11.0499 35.6488 11.595 35.6498C13.0819 35.6508 14.569 35.6508 16.0559 35.6498C16.6439 35.6488 16.6479 35.6478 16.6489 35.0638C16.65 29.7448 16.65 24.4248 16.6489 19.1058C16.6489 18.4858 16.6429 18.4798 16.043 18.4788C14.5859 18.4768 13.13 18.4768 11.674 18.4788C11.0399 18.4798 11.028 18.4898 11.027 19.1198C11.025 21.7568 11.026 24.3928 11.027 27.0298ZM13.892 16.0098C14.0439 15.9978 14.2579 15.9888 14.4709 15.9648C15.7999 15.8128 16.89 14.7488 17.002 13.4988C17.141 11.9288 16.376 10.7228 14.9709 10.3038C14.3419 10.1158 13.708 10.1018 13.064 10.2238C11.3779 10.5428 10.355 12.1368 10.772 13.8078C11.116 15.1828 12.2639 16.0108 13.892 16.0098Z" fill="#374143"/>
</svg>
