<svg width="46" height="46" viewBox="0 0 46 46" fill="none" xmlns="http://www.w3.org/2000/svg">
<path d="M23 0C35.7025 0 46 10.2975 46 23C46 35.7025 35.7025 46 23 46C10.2975 46 0 35.7025 0 23C0 10.2975 10.2975 0 23 0ZM23.0029 9C16.9316 9 12.0059 13.7526 12.0059 19.6201H12C12 26.3377 18.8843 34.3898 21.7598 37.459C22.4356 38.1798 23.5644 38.1798 24.2402 37.459C27.1157 34.3898 34 26.3377 34 19.6201C34 13.7526 29.0742 9.00003 23.0029 9ZM23.0029 16.208C25.0247 16.208 26.6689 17.8238 26.6689 19.8115C26.6689 21.7993 25.0248 23.416 23.0029 23.416C20.9811 23.416 19.3369 21.7993 19.3369 19.8115C19.337 17.8238 20.9811 16.208 23.0029 16.208Z" fill="#374143"/>
</svg>
