<svg xmlns="http://www.w3.org/2000/svg" width="324.459" height="185.513" viewBox="0 0 324.459 185.513">
  <g id="logo-exl" transform="translate(-90.46 -173.112)">
    <path id="Trazado_88" data-name="Trazado 88" d="M399.556,173.112c-30.794,0-55.758,26.264-55.758,58.662a60.517,60.517,0,0,0,9.886,33.35l.035-.092s2.183-95.51,90.086-67.929c0,0,1.786,66.275-59.33,69.053,0,0-3.968-36.908,31.55-47.623,0,0-18.674,14.072-16.27,29.367,0,0,23.018-6.548,27.382-39.289,0,0-47.424-7.341-53.576,32.344l-6.744,38.3a53.681,53.681,0,0,0,32.738,11.176c30.8,0,55.759-26.265,55.759-58.663S430.351,173.112,399.556,173.112Z" transform="translate(-40.396)" fill="#5e9eca"/>
    <g id="Grupo_10" data-name="Grupo 10" transform="translate(90.46 210.19)">
      <path id="Trazado_89" data-name="Trazado 89" d="M224.408,272.778c.782,8.733-.968,17.123-4,25.441-3.352,9.2-6.123,18.6-9.113,27.928a2.443,2.443,0,0,1-2.5,1.954c-7.066.013-14.131.039-21.2-.011-2.169-.016-3.118-1.489-2.45-3.741,1.856-6.265,3.772-12.512,5.664-18.766,3.208-10.605,6.434-21.2,9.587-31.825a4.792,4.792,0,0,0-.107-2.586q-7.409-24.659-14.9-49.295c-1.052-3.471-.189-4.631,3.463-4.634q8.959-.008,17.92.008c3.805,0,3.741.03,4.9,3.611,2.707,8.342,5.485,16.66,8.229,24.991,1.4,4.258,2.812,8.515,4.164,12.789a8.514,8.514,0,0,1,.321,2.457C224.425,264.952,224.408,268.805,224.408,272.778Z" transform="translate(-105.524 -217.227)" fill="#12213e"/>
      <path id="Trazado_90" data-name="Trazado 90" d="M241.017,272.614c-1.213-8.924,1.147-17.232,4.041-25.549,3.2-9.191,5.957-18.537,8.846-27.833a2.583,2.583,0,0,1,2.732-1.953c6.938-.05,13.877-.095,20.814,0,2.464.034,3.29,1.515,2.543,3.985q-7.445,24.649-14.925,49.288a6.9,6.9,0,0,0,0,4.266q7.508,24.631,14.919,49.294c.789,2.612-.179,3.982-2.9,3.989-6.682.017-13.364,0-20.045.008-1.457,0-2.611-.291-3.12-1.923-2.961-9.475-5.97-18.936-8.963-28.4-.888-2.808-1.7-5.643-2.695-8.415a20.9,20.9,0,0,1-1.273-8.088C241.115,278.4,241.017,275.5,241.017,272.614Z" transform="translate(-114.415 -217.224)" fill="#12213e"/>
      <path id="Trazado_91" data-name="Trazado 91" d="M295.907,275.149q0-19.268,0-38.537c0-3.039.423-3.476,3.438-3.482q8.192-.016,16.382.007c2.844.007,3.4.563,3.4,3.359q.005,28.516.005,57.034c0,3.517.514,4.026,3.981,4.026q15.419,0,30.838,0c3.083,0,3.625.529,3.629,3.538.008,4.5.018,8.992,0,13.488-.009,2.1-.535,2.68-2.6,2.681q-28.14.025-56.28,0c-2.2,0-2.785-.707-2.787-3.188Q295.9,294.61,295.907,275.149Z" transform="translate(-123.219 -219.759)" fill="#12213e"/>
      <path id="Trazado_92" data-name="Trazado 92" d="M125.084,320.817q-14.839,0-29.677,0c-4.311-.005-4.317-.026-4.319-4.253q-.009-20.42-.009-40.842c0-3.134.4-3.541,3.525-3.542q29.388,0,58.777,0c2.794,0,3.226.416,3.239,3.234q.026,5.875,0,11.752c-.013,3.048-.556,3.6-3.6,3.6q-18.982.011-37.963-.008c-3.276,0-3.653.373-3.655,3.618,0,1.734-.013,3.468,0,5.2.019,2.154.7,2.888,2.882,2.919,3.211.045,6.423.017,9.635.017q16.476,0,32.954,0c2.169,0,2.717.53,2.727,2.735.018,4.109.012,8.22,0,12.329-.006,2.695-.545,3.245-3.3,3.249q-15.61.02-31.22.006Z" transform="translate(-90.558 -225.986)" fill="#12213e"/>
      <path id="Trazado_93" data-name="Trazado 93" d="M125.221,254.83q-15.606,0-31.213,0c-2.456,0-2.923-.444-2.932-2.9q-.025-6.357.008-12.712c.013-2.267.589-2.823,2.869-2.823q31.406-.005,62.812.005c2.224,0,2.695.468,2.7,2.73q.028,6.549,0,13.1c-.013,2.084-.555,2.6-2.648,2.6Q141.019,254.837,125.221,254.83Z" transform="translate(-90.556 -220.28)" fill="#12213e"/>
      <path id="Trazado_94" data-name="Trazado 94" d="M97.876,363.331c-.215.321-.276.372-.282.427-.487,4.534-.487,4.534,4.038,4.531,1.928,0,3.858.066,5.782-.022,1.454-.066,1.855.527,1.863,1.924.034,5.476.076,5.476-5.448,5.476h-6.3a24.728,24.728,0,0,0,.08,4.017c.066.4,1.077.891,1.663.9,4.432.075,8.868.115,13.3,0,1.763-.045,2.3.467,2.249,2.263-.134,4.884-.049,4.886-4.976,4.886h-19.2c-.057-.735-.137-1.289-.138-1.844-.008-9.313.034-18.627-.043-27.939-.013-1.65.534-2.067,2.09-2.043q10.308.159,20.619.126c1.313,0,1.683.492,1.615,1.7a29.591,29.591,0,0,0,.012,3.851c.1,1.361-.43,1.782-1.767,1.763-4.367-.065-8.737-.024-13.107-.024Z" transform="translate(-90.46 -239.338)" fill="#12213e"/>
      <path id="Trazado_95" data-name="Trazado 95" d="M165.259,380.913a17.728,17.728,0,0,0,3.619.86c3.851.111,7.706.039,11.559.039h2.216a5.386,5.386,0,0,1-5.082,6.949c-4.8.284-9.628.193-14.438.042-2.546-.08-4.62-2.645-4.706-5.725q-.2-7.024,0-14.058c.09-3.168,2.585-5.453,6.028-5.557,4.3-.129,8.606-.114,12.907-.008,3.181.078,5.318,2.5,5.6,6.45.21,2.939.025,5.9.077,8.857.023,1.3-.8,1.22-1.663,1.22q-7.033-.005-14.065.008h-1.839Zm10.677-8.515c-1.062-1.795-3.952-2.344-8.723-1.653-.667.1-1.244.82-1.863,1.253l.3.4Z" transform="translate(-101.281 -240.527)" fill="#12213e"/>
      <path id="Trazado_96" data-name="Trazado 96" d="M215.538,363.388c2.118,0,4.236-.017,6.355.005a5.088,5.088,0,0,1,5.247,3.691c.088.24.164.485.235.73,1.486,5.069-.261,6.991-5.389,5.815-.523-.119-.832-1-1.337-1.407-.734-.594-1.513-1.442-2.348-1.54-1.963-.229-3.971-.055-5.96-.087-1.311-.02-2.154.561-2.206,1.868-.094,2.364-.127,4.735-.048,7.1a2.275,2.275,0,0,0,2.473,2.2,23.811,23.811,0,0,0,5.374-.047c1.006-.181,1.864-1.234,2.765-1.927.4-.312.728-.983,1.12-1.01a36.224,36.224,0,0,1,5,.012,1.507,1.507,0,0,1,.986,1.063c.419,5.085-.988,9.372-7.815,9.1-3.333-.133-6.675-.026-10.013-.018-4.388.01-6.766-2.059-6.922-6.4-.155-4.294-.142-8.6,0-12.9.132-4.1,2.543-6.233,6.712-6.252C211.687,363.379,213.613,363.386,215.538,363.388Z" transform="translate(-108.395 -240.529)" fill="#12213e"/>
      <path id="Trazado_97" data-name="Trazado 97" d="M357,378.741c1.795,0,3.591-.039,5.383.029a1.585,1.585,0,0,1,1.2.625c1.091,2.442-.473,7.294-2.869,8.523a9.325,9.325,0,0,1-3.839.966c-3.851.124-7.709.048-11.563.043-3.541,0-5.881-1.531-6.112-5.021a144.48,144.48,0,0,1,.026-16.133c.11-2.393,2.785-4.318,5.4-4.358q6.84-.1,13.684,0c2.455.037,4.034,1.558,4.9,4.413,1.514,5.016-.347,7.038-5.41,5.788a2.239,2.239,0,0,1-1.2-1.29,2.532,2.532,0,0,0-2.686-1.732c-1.863.016-3.728.039-5.59-.008a2.02,2.02,0,0,0-2.376,2.141q-.113,3.262-.063,6.528a2.427,2.427,0,0,0,2.617,2.5,19.053,19.053,0,0,0,5.37-.064c1.267-.305,2.306-1.55,3.448-2.377Z" transform="translate(-130.089 -240.526)" fill="#12213e"/>
      <path id="Trazado_98" data-name="Trazado 98" d="M265.512,369.207H259.85V387.56h-6.578v-18.3h-5.693V362.22h5.6v-6.03h6.506v5.91h5.824Z" transform="translate(-115.513 -239.382)" fill="#12213e"/>
      <path id="Trazado_99" data-name="Trazado 99" d="M134.543,371.82c0-4.686.045-9.374-.028-14.059-.02-1.357.417-1.735,1.755-1.743,5.163-.034,5.163-.079,5.163,5.063,0,8.218-.041,16.436.033,24.652.015,1.605-.451,2.078-2.057,2.053-4.866-.074-4.867-.008-4.865-4.8Q134.545,377.406,134.543,371.82Z" transform="translate(-97.484 -239.354)" fill="#12213e"/>
      <path id="Trazado_100" data-name="Trazado 100" d="M285.337,376.411c0-3.589.055-7.18-.027-10.767-.034-1.449.473-1.875,1.89-1.831q4.515.143,9.038,0c1.484-.048,1.975.548,1.83,1.916-.034.318-.007.64-.018.961-.044,1.213.335,2.75-.267,3.539-.518.678-2.15.549-3.3.693-2.185.275-2.356,1.929-2.381,3.554-.061,3.972-.019,7.947-.016,11.921,0,2.623.005,2.623-2.586,2.6-4.182-.033-4.181-.033-4.179-4.315q0-4.134,0-8.269Z" transform="translate(-121.529 -240.597)" fill="#12213e"/>
      <path id="Trazado_101" data-name="Trazado 101" d="M315.89,363.524c1.9,0,3.625-.059,5.337.045.379.024,1.035.619,1.037.956.059,8.06.045,16.121.045,24.3H315.89Z" transform="translate(-126.405 -240.549)" fill="#12213e"/>
      <path id="Trazado_102" data-name="Trazado 102" d="M315.517,356.132h6.846c-.18,1.539-.012,4.055-.579,4.233a10.04,10.04,0,0,1-5.616,0C315.615,360.205,315.736,357.768,315.517,356.132Z" transform="translate(-126.346 -239.373)" fill="#12213e"/>
    </g>
  </g>
</svg>
