<svg xmlns="http://www.w3.org/2000/svg" width="248.505" height="185.513" viewBox="0 0 248.505 185.513">
  <g id="Grupo_3" data-name="Grupo 3" transform="translate(-42.858 -119.234)">
    <rect id="Rectángulo_16" data-name="Rectángulo 16" width="248.505" height="136.465" transform="translate(42.858 119.234)" fill="#004b99"/>
    <rect id="Rectángulo_17" data-name="Rectángulo 17" width="248.505" height="43.379" transform="translate(42.858 261.368)" fill="#009fdf"/>
    <g id="Grupo_1" data-name="Grupo 1" transform="translate(88.039 209.508)">
      <path id="Trazado_1" data-name="Trazado 1" d="M135.982,294.043c-3.738,0-5.634.958-5.634,2.849v6.41c0,1.891,1.9,2.849,5.634,2.849s5.634-.958,5.634-2.849v-1.015c0-.384-.285-.772-.92-.772h-.957c-.7,0-.943.416-.943.772v.841c0,.244,0,.99-2.789.99s-2.789-.746-2.789-.99v-6.061c0-.245,0-.99,2.789-.99s2.789.745,2.789.99v.635c0,.363.247.787.943.787h.957c.679,0,.92-.424.92-.787v-.81C141.615,295,139.719,294.043,135.982,294.043Z" transform="translate(-130.348 -294.043)" fill="#fff"/>
      <path id="Trazado_2" data-name="Trazado 2" d="M168.218,294.288h-1.029c-.636,0-.92.387-.92.771v3.83h-5.794v-3.83c0-.372-.241-.771-.92-.771h-1c-.635,0-.92.387-.92.771v10.313c0,.384.285.771.92.771h1c.679,0,.92-.4.92-.771v-4.464h5.794v4.464c0,.384.285.771.92.771h1.029c.635,0,.919-.387.919-.771V295.059C169.137,294.675,168.853,294.288,168.218,294.288Z" transform="translate(-143.542 -294.161)" fill="#fff"/>
      <path id="Trazado_3" data-name="Trazado 3" d="M185.583,294.288h-1.005c-.635,0-.919.387-.919.771v10.313c0,.384.284.771.919.771h1.005c.678,0,.919-.4.919-.771V295.059C186.5,294.687,186.261,294.288,185.583,294.288Z" transform="translate(-156.128 -294.161)" fill="#fff"/>
      <path id="Trazado_4" data-name="Trazado 4" d="M203.237,294.288h-.909c-.636,0-.92.387-.92.771v6.715l-6.136-7.16a.925.925,0,0,0-.769-.326h-.909c-.7,0-.943.415-.943.771v10.313c0,.355.247.771.943.771h.909c.636,0,.92-.387.92-.771v-6.729l6.118,7.195a1.026,1.026,0,0,0,.786.305h.909c.678,0,.919-.4.919-.771V295.059C204.156,294.687,203.915,294.288,203.237,294.288Z" transform="translate(-160.476 -294.161)" fill="#fff"/>
      <path id="Trazado_5" data-name="Trazado 5" d="M228.66,294.288h-9.954c-.7,0-.943.4-.943.771v.492c0,.129.046.771.943.771h3.531v9.05c0,.355.247.771.943.771h1.029c.636,0,.92-.387.92-.771v-9.05h3.531c.7,0,.943-.416.943-.771v-.492C229.6,294.7,229.357,294.288,228.66,294.288Z" transform="translate(-172.62 -294.161)" fill="#fff"/>
      <path id="Trazado_6" data-name="Trazado 6" d="M265.621,304.109h-7.151v-3.154h6.363c.985,0,1.035-.642,1.035-.771v-.46c0-.129-.05-.771-1.035-.771h-6.363v-2.631h6.836c.764,0,1.034-.416,1.034-.771v-.492c0-.356-.271-.771-1.034-.771H256.36c-.7,0-1.008.387-1.008.771v10.313c0,.384.3.771.982.771h9.287c.764,0,1.034-.416,1.034-.771v-.508C266.656,304.516,266.385,304.109,265.621,304.109Z" transform="translate(-190.798 -294.161)" fill="#fff"/>
      <path id="Trazado_7" data-name="Trazado 7" d="M289.95,304.109H283.3v-9.05c0-.384-.309-.771-1-.771h-1.119c-.69,0-1,.387-1,.771v10.313c0,.454.39.771.948.771h8.816c.737,0,1-.4,1-.771v-.508C290.949,304.516,290.688,304.109,289.95,304.109Z" transform="translate(-202.808 -294.161)" fill="#fff"/>
      <path id="Trazado_8" data-name="Trazado 8" d="M313.732,304.109h-7.37v-3.154h6.56c1.015,0,1.066-.642,1.066-.771v-.46c0-.373-.28-.771-1.066-.771h-6.56v-2.631h7.046c.787,0,1.066-.416,1.066-.771v-.492c0-.356-.279-.771-1.066-.771h-9.221c-.718,0-1.039.387-1.039.771v10.313c0,.384.313.771,1.012.771h9.572c.787,0,1.066-.416,1.066-.771v-.508C314.8,304.516,314.519,304.109,313.732,304.109Z" transform="translate(-213.912 -294.161)" fill="#fff"/>
      <path id="Trazado_9" data-name="Trazado 9" d="M334.123,294.043c-3.738,0-5.634.958-5.634,2.849v6.41c0,1.891,1.9,2.849,5.634,2.849s5.633-.958,5.633-2.849v-1.015c0-.384-.285-.772-.92-.772h-.957c-.7,0-.943.416-.943.772v.841c0,.244,0,.99-2.79.99s-2.789-.746-2.789-.99v-6.061c0-.245,0-.99,2.789-.99s2.79.745,2.79.99v.635c0,.363.247.787.943.787h.957c.679,0,.92-.424.92-.787v-.81C339.756,295,337.861,294.043,334.123,294.043Z" transform="translate(-226.166 -294.043)" fill="#fff"/>
      <path id="Trazado_10" data-name="Trazado 10" d="M363.033,294.288h-9.954c-.7,0-.943.4-.943.771v.492c0,.129.045.771.943.771h3.531v9.05c0,.355.247.771.943.771h1.03c.635,0,.919-.387.919-.771v-9.05h3.531c.7,0,.943-.416.943-.771v-.492C363.976,294.7,363.729,294.288,363.033,294.288Z" transform="translate(-237.601 -294.161)" fill="#fff"/>
      <path id="Trazado_11" data-name="Trazado 11" d="M385.825,301.433c2.116-.522,2.59-1.629,2.59-2.518v-1.776c0-1.3-1-2.85-5.777-2.85H377.9a.792.792,0,0,0-.9.771v10.313c0,.384.285.771.919.771h1.005c.678,0,.92-.4.92-.771v-3.624h3.07l2.794,3.914.054.068a1,1,0,0,0,.867.413h1a.952.952,0,0,0,.858-.382.612.612,0,0,0-.034-.683Zm-5.976-5.11h2.789c1.327,0,2.909.171,2.909.99v1.412c0,.668-.979,1.006-2.909,1.006h-2.789Z" transform="translate(-249.628 -294.161)" fill="#fff"/>
      <path id="Trazado_12" data-name="Trazado 12" d="M406.27,294.288h-1.005c-.635,0-.919.387-.919.771v10.313c0,.384.284.771.919.771h1.005c.678,0,.919-.4.919-.771V295.059C407.189,294.687,406.947,294.288,406.27,294.288Z" transform="translate(-262.849 -294.161)" fill="#fff"/>
      <path id="Trazado_13" data-name="Trazado 13" d="M424.048,298.488H425c.679,0,.92-.424.92-.787v-.81c0-1.891-1.895-2.849-5.633-2.849s-5.634.958-5.634,2.849v6.41c0,1.891,1.9,2.849,5.634,2.849s5.633-.958,5.633-2.849v-1.015c0-.384-.285-.772-.92-.772h-.957c-.7,0-.943.416-.943.772v.841c0,.244,0,.99-2.789.99s-2.79-.746-2.79-.99v-6.061c0-.245,0-.99,2.79-.99s2.789.745,2.789.99v.635C423.1,298.064,423.351,298.488,424.048,298.488Z" transform="translate(-267.837 -294.043)" fill="#fff"/>
    </g>
    <g id="Grupo_2" data-name="Grupo 2" transform="translate(71.344 271)">
      <path id="Trazado_14" data-name="Trazado 14" d="M100.911,429h7.765v2.419H98.019v-15.79h10.232v2.419h-7.34v4.084h6.3v2.419h-6.3Z" transform="translate(-98.019 -414.335)" fill="#fff"/>
      <path id="Trazado_15" data-name="Trazado 15" d="M137.283,428.274q0-.366-.024-.685a3.427,3.427,0,0,0-.082-.555,1.56,1.56,0,0,0-.508-.838,1.648,1.648,0,0,0-1.062-.331,2.864,2.864,0,0,0-.755.107,4.008,4.008,0,0,0-.773.3,4.189,4.189,0,0,0-.732.472,4.26,4.26,0,0,0-.632.619v7.872h-2.8v-6.963q0-.366-.024-.685a3.31,3.31,0,0,0-.083-.555,1.573,1.573,0,0,0-.5-.838,1.64,1.64,0,0,0-1.068-.331,2.874,2.874,0,0,0-.756.107,4.008,4.008,0,0,0-.773.3,4.329,4.329,0,0,0-1.363,1.091v7.872h-2.8V423.8h2.313l.26,1.593h.047a4.194,4.194,0,0,1,.625-.7,4.385,4.385,0,0,1,.856-.6,5.018,5.018,0,0,1,1.05-.419,4.5,4.5,0,0,1,1.209-.159,4.121,4.121,0,0,1,2.036.5,3.21,3.21,0,0,1,1.375,1.564h.047a5.564,5.564,0,0,1,.738-.838,4.471,4.471,0,0,1,.9-.649,4.839,4.839,0,0,1,1.068-.425,4.7,4.7,0,0,1,1.221-.153,3.993,3.993,0,0,1,2.059.513,3.368,3.368,0,0,1,1.28,1.375,2.871,2.871,0,0,1,.2.49,4.341,4.341,0,0,1,.136.6,7.232,7.232,0,0,1,.076.732q.024.4.024.921v7.092h-2.8Z" transform="translate(-109.884 -418.148)" fill="#fff"/>
      <path id="Trazado_16" data-name="Trazado 16" d="M166.8,435.531a4.038,4.038,0,0,1-1.67-.336,4.131,4.131,0,0,1-1.245-.832h-.047q.012.236.024.667c.007.287.012.6.012.938v4.756h-2.8V423.8h2.455l.118,1.287h.047a4.11,4.11,0,0,1,1.334-1.127,3.894,3.894,0,0,1,1.889-.442,5.067,5.067,0,0,1,1.835.348,4.419,4.419,0,0,1,1.6,1.068,5.286,5.286,0,0,1,1.115,1.817,7.312,7.312,0,0,1,.419,2.608,7.646,7.646,0,0,1-.448,2.756,5.7,5.7,0,0,1-1.18,1.924,4.723,4.723,0,0,1-3.458,1.492Zm-.366-9.772a3.058,3.058,0,0,0-1.393.36,3.958,3.958,0,0,0-1.168.938v5.1a3.41,3.41,0,0,0,.424.4,3.522,3.522,0,0,0,.555.366,3.4,3.4,0,0,0,.679.272,2.8,2.8,0,0,0,.773.106,2.305,2.305,0,0,0,2-1.062,3.9,3.9,0,0,0,.513-1.209,7.107,7.107,0,0,0-.006-3.181,3.419,3.419,0,0,0-.519-1.157,2.232,2.232,0,0,0-.809-.7A2.318,2.318,0,0,0,166.433,425.76Z" transform="translate(-128.512 -418.148)" fill="#fff"/>
      <path id="Trazado_17" data-name="Trazado 17" d="M195.8,429.524a7.169,7.169,0,0,1-.4,2.454,5.384,5.384,0,0,1-1.151,1.9,5.092,5.092,0,0,1-1.812,1.221,6.26,6.26,0,0,1-2.372.431,6.4,6.4,0,0,1-2.413-.431,5.015,5.015,0,0,1-1.812-1.221,5.352,5.352,0,0,1-1.139-1.9,7.258,7.258,0,0,1-.4-2.454,7.171,7.171,0,0,1,.4-2.454,5.379,5.379,0,0,1,1.151-1.9,5.091,5.091,0,0,1,1.812-1.221,6.25,6.25,0,0,1,2.372-.431,6.4,6.4,0,0,1,2.413.431,5.026,5.026,0,0,1,1.812,1.221,5.368,5.368,0,0,1,1.139,1.9A7.272,7.272,0,0,1,195.8,429.524Zm-2.891,0a5.516,5.516,0,0,0-.212-1.605,3.486,3.486,0,0,0-.59-1.169,2.419,2.419,0,0,0-.909-.708,2.831,2.831,0,0,0-1.157-.236,2.76,2.76,0,0,0-1.139.236,2.429,2.429,0,0,0-.9.708,3.485,3.485,0,0,0-.59,1.169,6.175,6.175,0,0,0,0,3.21,3.34,3.34,0,0,0,.6,1.162,2.544,2.544,0,0,0,.909.708,2.718,2.718,0,0,0,1.151.242,2.682,2.682,0,0,0,1.145-.242,2.509,2.509,0,0,0,.9-.708,3.4,3.4,0,0,0,.59-1.162A5.513,5.513,0,0,0,192.911,429.524Z" transform="translate(-139.747 -418.148)" fill="#fff"/>
      <path id="Trazado_18" data-name="Trazado 18" d="M216.176,427.169q-.331,1.711-.779,3.316l-1.381,5.016h-2.75l-4-11.436h2.95l1.475,4.792q.507,1.664.9,3.222h.047q.33-1.51.791-3.222l1.31-4.792h2.95l1.286,4.792q.413,1.523.791,3.222h.048q.4-1.593.9-3.222l1.475-4.792h2.95l-4,11.436h-2.75L217,430.485q-.472-1.687-.779-3.316Z" transform="translate(-150.849 -418.412)" fill="#fff"/>
      <path id="Trazado_19" data-name="Trazado 19" d="M249.043,433.277a9.267,9.267,0,0,0,1.7-.165,13.2,13.2,0,0,0,1.794-.472v2.23a8.36,8.36,0,0,1-1.664.448,12.431,12.431,0,0,1-2.325.212,8.351,8.351,0,0,1-2.307-.312,5.015,5.015,0,0,1-1.906-1.009,4.857,4.857,0,0,1-1.293-1.805,6.79,6.79,0,0,1-.478-2.691,7.585,7.585,0,0,1,.449-2.726,5.555,5.555,0,0,1,1.2-1.936,4.953,4.953,0,0,1,1.729-1.151,5.442,5.442,0,0,1,2.012-.383,5.842,5.842,0,0,1,2,.33,4.024,4.024,0,0,1,1.581,1.039,4.852,4.852,0,0,1,1.039,1.823,8.364,8.364,0,0,1,.372,2.638q-.012.59-.036,1H245.42a3.42,3.42,0,0,0,.354,1.351,2.6,2.6,0,0,0,.773.909,3.17,3.17,0,0,0,1.115.507A5.674,5.674,0,0,0,249.043,433.277Zm-1.121-7.576a2.185,2.185,0,0,0-.945.195,2.211,2.211,0,0,0-.714.531,2.6,2.6,0,0,0-.478.785,3.789,3.789,0,0,0-.236.956h4.5a3.287,3.287,0,0,0-.136-.956,2.352,2.352,0,0,0-.4-.785,1.9,1.9,0,0,0-.661-.531A2.071,2.071,0,0,0,247.922,425.7Z" transform="translate(-167.919 -418.148)" fill="#fff"/>
      <path id="Trazado_20" data-name="Trazado 20" d="M273.143,426.02h-.236a6.143,6.143,0,0,0-2.26.383,3.143,3.143,0,0,0-1.5,1.175v7.659h-2.8V423.8h2.314l.259,1.593h.047a3.637,3.637,0,0,1,1.363-1.375,4.1,4.1,0,0,1,2.083-.5,4.975,4.975,0,0,1,.732.046Z" transform="translate(-179.419 -418.148)" fill="#fff"/>
      <path id="Trazado_21" data-name="Trazado 21" d="M295.3,432.495a7.034,7.034,0,0,1-1.127.224,9.758,9.758,0,0,1-1.221.083,5.182,5.182,0,0,1-2.354-.466A2.669,2.669,0,0,1,289.3,431a4.349,4.349,0,0,1-.271-1.7v-5.925h-2.136v-2.3h2.136v-3.2h2.8v3.2h3.3v2.3h-3.3v5.559a1.881,1.881,0,0,0,.2.98,1.562,1.562,0,0,0,1.4.542,6,6,0,0,0,.962-.076,8.291,8.291,0,0,0,.9-.195Z" transform="translate(-189.357 -415.417)" fill="#fff"/>
      <path id="Trazado_22" data-name="Trazado 22" d="M309.062,417.781q0,.885-.029,1.458t-.1,1.032h.047a4.92,4.92,0,0,1,.608-.661,4.223,4.223,0,0,1,.791-.572,4.418,4.418,0,0,1,2.189-.548,5.406,5.406,0,0,1,1.1.112,4.061,4.061,0,0,1,1,.348,3.349,3.349,0,0,1,1.493,1.511,3.844,3.844,0,0,1,.331,1.015,7.689,7.689,0,0,1,.106,1.381v7.352h-2.8v-6.975a6.541,6.541,0,0,0-.048-.868,2,2,0,0,0-.166-.584,1.453,1.453,0,0,0-.708-.732,2.471,2.471,0,0,0-1.05-.213,3.191,3.191,0,0,0-1.5.39,4.205,4.205,0,0,0-1.269,1.109v7.872h-2.8V413.119h2.8Z" transform="translate(-198.724 -413.119)" fill="#fff"/>
      <path id="Trazado_23" data-name="Trazado 23" d="M336.2,433.277a9.272,9.272,0,0,0,1.7-.165,13.2,13.2,0,0,0,1.794-.472v2.23a8.37,8.37,0,0,1-1.664.448,12.435,12.435,0,0,1-2.325.212,8.35,8.35,0,0,1-2.307-.312,5.021,5.021,0,0,1-1.906-1.009A4.862,4.862,0,0,1,330.2,432.4a6.791,6.791,0,0,1-.478-2.691,7.585,7.585,0,0,1,.448-2.726,5.562,5.562,0,0,1,1.2-1.936,4.951,4.951,0,0,1,1.729-1.151,5.441,5.441,0,0,1,2.011-.383,5.838,5.838,0,0,1,2,.33,4.023,4.023,0,0,1,1.582,1.039,4.859,4.859,0,0,1,1.039,1.823,8.381,8.381,0,0,1,.371,2.638q-.012.59-.035,1h-7.494a3.418,3.418,0,0,0,.354,1.351,2.6,2.6,0,0,0,.773.909,3.172,3.172,0,0,0,1.115.507A5.677,5.677,0,0,0,336.2,433.277Zm-1.121-7.576a2.183,2.183,0,0,0-.944.195,2.218,2.218,0,0,0-.714.531,2.606,2.606,0,0,0-.478.785,3.788,3.788,0,0,0-.236.956h4.5a3.287,3.287,0,0,0-.135-.956,2.351,2.351,0,0,0-.4-.785,1.9,1.9,0,0,0-.661-.531A2.069,2.069,0,0,0,335.084,425.7Z" transform="translate(-210.069 -418.148)" fill="#fff"/>
      <path id="Trazado_24" data-name="Trazado 24" d="M367.493,419.787q-.46,2.207-1.062,4.555l-1.771,7.081h-2.879l-5.016-15.79h3.08l1.9,6.29q.861,2.963,1.393,5.358h.071q.519-2.572,1.2-5.275l1.628-6.373h2.975l1.628,6.373q.685,2.679,1.2,5.275h.071q.649-2.832,1.393-5.358l1.9-6.29h3.08l-5.016,15.79H370.4l-1.77-7.081q-.6-2.4-1.062-4.555Z" transform="translate(-223.146 -414.335)" fill="#fff"/>
      <path id="Trazado_25" data-name="Trazado 25" d="M409.158,429.524a7.168,7.168,0,0,1-.4,2.454,5.382,5.382,0,0,1-1.151,1.9A5.089,5.089,0,0,1,405.8,435.1a6.264,6.264,0,0,1-2.372.431,6.408,6.408,0,0,1-2.414-.431,5.024,5.024,0,0,1-1.812-1.221,5.359,5.359,0,0,1-1.139-1.9,7.257,7.257,0,0,1-.4-2.454,7.157,7.157,0,0,1,.4-2.454,5.376,5.376,0,0,1,1.15-1.9,5.1,5.1,0,0,1,1.812-1.221,6.254,6.254,0,0,1,2.372-.431,6.4,6.4,0,0,1,2.414.431,5.028,5.028,0,0,1,1.812,1.221,5.361,5.361,0,0,1,1.139,1.9A7.286,7.286,0,0,1,409.158,429.524Zm-2.891,0a5.514,5.514,0,0,0-.213-1.605,3.486,3.486,0,0,0-.59-1.169,2.411,2.411,0,0,0-.909-.708,2.826,2.826,0,0,0-1.156-.236,2.76,2.76,0,0,0-1.139.236,2.424,2.424,0,0,0-.9.708,3.477,3.477,0,0,0-.59,1.169,6.16,6.16,0,0,0,0,3.21,3.331,3.331,0,0,0,.6,1.162,2.547,2.547,0,0,0,.908.708,2.721,2.721,0,0,0,1.151.242,2.682,2.682,0,0,0,1.145-.242,2.5,2.5,0,0,0,.9-.708,3.405,3.405,0,0,0,.59-1.162A5.511,5.511,0,0,0,406.267,429.524Z" transform="translate(-242.923 -418.148)" fill="#fff"/>
      <path id="Trazado_26" data-name="Trazado 26" d="M430.162,426.02h-.236a6.143,6.143,0,0,0-2.26.383,3.144,3.144,0,0,0-1.5,1.175v7.659h-2.8V423.8h2.313l.26,1.593h.047a3.63,3.63,0,0,1,1.363-1.375,4.094,4.094,0,0,1,2.083-.5,4.971,4.971,0,0,1,.732.046Z" transform="translate(-255.352 -418.148)" fill="#fff"/>
      <path id="Trazado_27" data-name="Trazado 27" d="M438.6,430.208V413.119h2.8v17.089Z" transform="translate(-262.718 -413.119)" fill="#fff"/>
      <path id="Trazado_28" data-name="Trazado 28" d="M447.684,424.72a8.034,8.034,0,0,1,.413-2.673,5.8,5.8,0,0,1,1.127-1.971,4.655,4.655,0,0,1,1.634-1.192,4.8,4.8,0,0,1,1.912-.395,4.437,4.437,0,0,1,.873.082,4.782,4.782,0,0,1,.779.224,5.424,5.424,0,0,1,.684.319,6.9,6.9,0,0,1,.591.366h.023q-.012-.236-.018-.667t-.005-.938v-4.756h2.8v13.69q0,1.133.023,1.947t.047,1.452H456.04l-.118-1.216h-.047a4.426,4.426,0,0,1-.6.578,4.037,4.037,0,0,1-.767.49,4.321,4.321,0,0,1-.921.325,4.775,4.775,0,0,1-1.092.118,4.934,4.934,0,0,1-1.788-.33,4.321,4.321,0,0,1-1.534-1.021,4.968,4.968,0,0,1-1.086-1.806A7.661,7.661,0,0,1,447.684,424.72Zm5.511,3.552a2.847,2.847,0,0,0,.785-.106,3.562,3.562,0,0,0,.7-.284,3.421,3.421,0,0,0,.584-.389,3.987,3.987,0,0,0,.431-.413v-5.428a4.752,4.752,0,0,0-1.11-.667,3.235,3.235,0,0,0-1.3-.266,2.627,2.627,0,0,0-.915.177,2.263,2.263,0,0,0-.873.6,3.349,3.349,0,0,0-.661,1.18,5.9,5.9,0,0,0-.265,1.923,4.687,4.687,0,0,0,.667,2.691A2.247,2.247,0,0,0,453.2,428.272Z" transform="translate(-267.112 -413.119)" fill="#fff"/>
    </g>
    <path id="Trazado_29" data-name="Trazado 29" d="M142.5,211.7H134.06a1.784,1.784,0,0,0-1.846,2.307v4.186a3.065,3.065,0,0,1-2.571,3.362H113.557a3.994,3.994,0,0,1-4.021-2.769V196.965a3.994,3.994,0,0,1,4.021-2.769h16.086a3.065,3.065,0,0,1,2.571,3.362v2.505a1.784,1.784,0,0,0,1.846,2.307H142.5s1.121-.2,1.121-4.681c0-7.581-4.615-12.328-9.559-12.328H108.283s-10.021,1.582-10.021,11.075v22.876c0,9.493,10.021,11.076,10.021,11.076H134.06c4.944,0,9.693-5.779,9.559-12.328C143.53,213.732,143.859,212.516,142.5,211.7Z" transform="translate(-26.793 -31.979)" fill="#fff"/>
    <path id="Trazado_30" data-name="Trazado 30" d="M425.451,185.362H383.517a1.546,1.546,0,0,0-1.546,1.546v6.546A1.546,1.546,0,0,0,383.517,195h15.12v33.842a1.546,1.546,0,0,0,1.546,1.546h8.6a1.546,1.546,0,0,0,1.546-1.546V195h15.12A1.546,1.546,0,0,0,427,193.454v-6.546A1.546,1.546,0,0,0,425.451,185.362Z" transform="translate(-163.991 -31.979)" fill="#fff"/>
    <path id="Trazado_31" data-name="Trazado 31" d="M236.132,201.931H203.979V186.908a1.546,1.546,0,0,0-1.546-1.546h-8.6a1.546,1.546,0,0,0-1.546,1.546v41.934a1.546,1.546,0,0,0,1.546,1.546h8.6a1.546,1.546,0,0,0,1.546-1.546V211.394h22v17.449a1.546,1.546,0,0,0,1.546,1.546h8.6a1.546,1.546,0,0,0,1.546-1.546V203.477A1.546,1.546,0,0,0,236.132,201.931Z" transform="translate(-72.26 -31.979)" fill="#fff"/>
    <rect id="Rectángulo_18" data-name="Rectángulo 18" width="11.527" height="11.834" rx="3.638" transform="translate(153.82 153.12)" fill="#bb0514"/>
    <path id="Trazado_32" data-name="Trazado 32" d="M331.3,185.362h-8.6a1.546,1.546,0,0,0-1.546,1.546V212.4l-21.749-26.258a1.552,1.552,0,0,0-.332-.4l-.011-.013v0a1.53,1.53,0,0,0-.991-.369h-8.6a1.546,1.546,0,0,0-1.546,1.546v41.934a1.546,1.546,0,0,0,1.546,1.546h8.6a1.546,1.546,0,0,0,1.546-1.546v-26.4L321.262,229.4a1.548,1.548,0,0,0,.593.738h0a1.536,1.536,0,0,0,.846.254h8.6a1.546,1.546,0,0,0,1.546-1.546V186.908A1.546,1.546,0,0,0,331.3,185.362Z" transform="translate(-118.51 -31.979)" fill="#fff"/>
  </g>
</svg>
