<svg xmlns="http://www.w3.org/2000/svg" width="393.345" height="185.513" viewBox="0 0 393.345 185.513">
  <g id="logo-staco" transform="translate(-71.865 -183.668)">
    <path id="Trazado_60" data-name="Trazado 60" d="M470.326,334.09v-.077a1.736,1.736,0,0,0,1.3-1.587,1.767,1.767,0,0,0-.689-1.461,3.19,3.19,0,0,0-2.112-.523,13.042,13.042,0,0,0-2.352.2v6.773h1.257V334.58h.814c.933,0,1.377.322,1.541,1.094a5.174,5.174,0,0,0,.568,1.742h1.3a4.681,4.681,0,0,1-.53-1.663A2.089,2.089,0,0,0,470.326,334.09Zm-1.745-.488h-.851v-2.108a4.754,4.754,0,0,1,.973-.081c1.179,0,1.623.486,1.623,1.138C470.326,333.32,469.477,333.6,468.581,333.6Z" transform="translate(-27.837 -10.354)" fill="#fff"/>
    <path id="Trazado_61" data-name="Trazado 61" d="M468.634,327.167h-.043a6.491,6.491,0,1,0,6.531,6.45A6.4,6.4,0,0,0,468.634,327.167Zm0,11.805a5.338,5.338,0,0,1-.086-10.672h.043a5.176,5.176,0,0,1,5.113,5.356A5.109,5.109,0,0,1,468.634,338.972Z" transform="translate(-27.52 -10.123)" fill="#fff"/>
    <path id="Trazado_62" data-name="Trazado 62" d="M241.277,226.536h22.434l-10.877,43.3h19.628l10.879-43.3h22.217l3.824-14.744H245.006Z" transform="translate(-11.951 -1.984)" fill="#fff"/>
    <path id="Trazado_63" data-name="Trazado 63" d="M301.718,269.786,310,259.354h22.136l2.214,10.432h19.8l-16.372-58.747H329.14l-48.407,58.747ZM327.263,237.2l2.286,9.262-9.516.025Z" transform="translate(-14.734 -1.931)" fill="#fff"/>
    <path id="Trazado_64" data-name="Trazado 64" d="M365.822,264.456c5.276,4.109,12.192,6.192,20.56,6.192,9.306,0,16.336-1.592,21.5-4.867l1.515-.959.494-16.508-5.506,3.819c-3.609,2.5-8.808,3.773-15.452,3.773-3.878,0-6.866-.9-8.877-2.684a8.693,8.693,0,0,1-2.853-6.92c0-5.225,2.085-9.9,6.376-14.288a20.971,20.971,0,0,1,15.754-6.5,22.917,22.917,0,0,1,10.625,2.46l3.3,1.707,6.274-15.578-3.515-1.082a55.035,55.035,0,0,0-16.106-2.178c-12.417,0-22.669,3.515-30.477,10.444a33.869,33.869,0,0,0-11.938,26.265A20.523,20.523,0,0,0,365.822,264.456Z" transform="translate(-20.149 -1.917)" fill="#fff"/>
    <path id="Trazado_65" data-name="Trazado 65" d="M427.31,264.368c4.925,4.166,11.6,6.278,19.826,6.278,12.97,0,23.4-3.472,31-10.319,7.7-6.941,11.611-16.068,11.611-27.124,0-7.285-2.776-12.962-8.251-16.879-5.121-3.659-12.34-5.512-21.459-5.512-11.817,0-21.593,3.578-29.059,10.637a34.446,34.446,0,0,0-11.335,25.867A21.352,21.352,0,0,0,427.31,264.368Zm17.848-32.334a17.488,17.488,0,0,1,14.011-6.517c9.576,0,10.87,4.237,10.87,8.386a22.6,22.6,0,0,1-5.8,15.65c-3.791,4.273-8.884,6.351-15.567,6.351-3.182,0-5.457-.79-6.951-2.408-1.569-1.7-2.329-4.037-2.329-7.127C439.4,241.273,441.28,236.585,445.158,232.034Z" transform="translate(-24.533 -1.915)" fill="#fff"/>
    <path id="Trazado_66" data-name="Trazado 66" d="M153.627,312.224H106.288l4.667-15.65h39.333l5.443-16.4H116.119l3.163-11,43.952.024a126.828,126.828,0,0,0,23.278,2.238c7.854,0,22.618-.725,33.381-5.625,9.364-4.637,14.426-9.133,16.1-20.823l.027-.255c.726-10.937-6.55-18.561-21.528-22.628-7.217-2.2-13.938-4.534-15.2-4.976-5.887-3.048-5.887-6.427-5.887-7.706,0-6.278,9.85-7.215,15.725-7.215,5.051,0,11.669,1.8,19.673,5.356l3.531,1.569,6.019-20.595-3.058-1.045a79.518,79.518,0,0,0-25.32-3.833,85.028,85.028,0,0,0-23.55,3.153c-15.4,4.513-22.417,15.6-22.417,23.988,0,.1-.006.228-.012.378-.352,7.579,3.444,13.114,11.282,16.454,10.428,4.441,23.6,9.548,23.866,9.651,4.894,1.657,7.374,4.024,7.374,7.033a4.552,4.552,0,0,1-1.8,3.358c-1.656,1.416-5.21,3.1-12.711,3.1q-1.479,0-3.131-.09l-.19-.007a62.851,62.851,0,0,1-25.028-5.229c-.3-.149-3.027-1.653-8.6-4.731l-2.839-1.57-6.081,10.109,24.3,0-.822,1.919h-.116v0h-3.805l-20.769-.026-.012.02-49-.013-24.045,79.07h77.35Z" fill="#fff"/>
    <path id="Trazado_67" data-name="Trazado 67" d="M204.986,307.572l-20.871-26.054h-9.737L160.387,336.95h18.785l6.388-26.595,21.369,27.261h8.893L230,281.518H211.256Z" transform="translate(-6.245 -6.903)" fill="#fff"/>
    <path id="Trazado_68" data-name="Trazado 68" d="M285.726,295.855l3.723-14.337H239.374l-14.049,55.432h49.531l3.716-14.337H248.2l1.854-7.442h22.1l3.379-13.362H253.416l1.5-5.954Z" transform="translate(-10.825 -6.903)" fill="#fff"/>
    <path id="Trazado_69" data-name="Trazado 69" d="M345.322,296.187c0-3.591-1.421-8.556-8.189-11.83-4.7-2.274-10.778-3.379-18.579-3.379-2.841,0-8.606.165-17.624.506l-2.532.095-13.917,55.333h19.207l5.131-20.275q1.68.074,3.153.11l12.811,20.166h21.692l-15.832-22.857a24.385,24.385,0,0,0,9.019-5.251A16.774,16.774,0,0,0,345.322,296.187ZM312.8,302.775c-.166,0-.337,0-.511,0l1.831-7.28c1.076-.088,1.5-.112,1.654-.114,5.764,0,8.435.62,9.651,1.138,1.169.5,1.259,1.009,1.259,1.665C326.681,302.328,316.973,302.775,312.8,302.775Z" transform="translate(-14.998 -6.864)" fill="#fff"/>
    <path id="Trazado_70" data-name="Trazado 70" d="M406.322,331.407l6.969-27.526H385.256l-3.531,14H391l-.981,3.906a21.493,21.493,0,0,1-8.525,1.6c-4.473,0-7.965-.9-10.372-2.674a7.559,7.559,0,0,1-3.147-6.6,17.166,17.166,0,0,1,6.155-13.558c4.276-3.762,9.882-5.59,17.136-5.59a29.812,29.812,0,0,1,12.021,2.67l2.958,1.3,6.316-12.77-2.471-1.647c-3.925-2.62-9.515-3.894-17.083-3.894-13.286,0-24.009,3.084-31.877,9.163-8.129,6.286-12.25,14.894-12.25,25.585,0,6.587,2.877,12.075,8.553,16.308,5.369,4,12.342,6.039,20.724,6.039,10.448,0,19.464-1.89,26.793-5.617Z" transform="translate(-19.542 -6.839)" fill="#fff"/>
    <path id="Trazado_71" data-name="Trazado 71" d="M444.66,298.5l-9.619-16.984H414.792l18.043,30.77-6.256,24.661h18.764l5.832-23.115,34.92-32.317H462.554Z" transform="translate(-24.191 -6.903)" fill="#fff"/>
    <path id="Trazado_72" data-name="Trazado 72" d="M147.646,355.148c-2.428-2.625-7.131-2.845-11.347-2.845h-8.266l-8.795,28.312h9.251l2.9-9.388H134.8c8.231,0,13.882-4.222,14.4-10.752A6.754,6.754,0,0,0,147.646,355.148ZM134.5,364.693h-1.1l1.794-5.855h1.746a3.532,3.532,0,0,1,2.615.712,2.056,2.056,0,0,1,.4,1.621C139.727,364.079,136.86,364.693,134.5,364.693Z" transform="translate(-3.342 -11.896)" fill="#fff"/>
    <path id="Trazado_73" data-name="Trazado 73" d="M166.677,352.3h-9.8l-8.666,28.31h9.3l3.163-10.621.362,0c.686-.071,1.018-.118,1.239-.149.108-.018.186-.028.27-.035,1.193,2.9,4.349,10.363,4.349,10.363l.188.443h9.4l-.537-1.057c-.043-.082-3.807-7.5-5.423-11.1,4.837-.709,8.173-4.035,8.527-8.52a6.324,6.324,0,0,0-1.443-4.973C175.206,352.363,170.48,352.33,166.677,352.3Zm-2.416,11.158h-1.642l1.376-4.625h3.142a3.237,3.237,0,0,1,2.319.661,1.7,1.7,0,0,1,.323,1.327C169.729,361.477,169.571,363.462,164.261,363.462Z" transform="translate(-5.385 -11.896)" fill="#fff"/>
    <path id="Trazado_74" data-name="Trazado 74" d="M211.312,355.424c-2.218-2.4-5.657-3.617-10.221-3.617-11.036,0-18.142,6.55-19,17.524a10.372,10.372,0,0,0,2.513,8.094c2.221,2.4,5.662,3.617,10.231,3.617,11.036,0,18.138-6.535,19-17.487A10.409,10.409,0,0,0,211.312,355.424Zm-6.953,8.595c-.311,3.966-2.925,10.256-8.61,10.256a4.125,4.125,0,0,1-3.163-1.124c-1.035-1.123-1.129-2.946-1.023-4.282.313-3.982,2.929-10.294,8.613-10.294a4.1,4.1,0,0,1,3.149,1.126C204.372,360.834,204.464,362.676,204.358,364.018Z" transform="translate(-7.772 -11.861)" fill="#fff"/>
    <path id="Trazado_75" data-name="Trazado 75" d="M234.332,352.3h-10.59l-8.715,28.312H228.52c12.356,0,19.63-5.949,20.48-16.753a9.578,9.578,0,0,0-2.322-7.572C244.231,353.644,240.081,352.3,234.332,352.3Zm5.2,11.944c-.364,4.643-3.351,9.6-10.635,9.6h-2.425l4.49-14.779h1.374c3.239,0,5.234.525,6.277,1.654A4.423,4.423,0,0,1,239.531,364.247Z" transform="translate(-10.099 -11.896)" fill="#fff"/>
    <path id="Trazado_76" data-name="Trazado 76" d="M277.18,352.3l-3.987,12.668-.326,1.078c-1.221,4.061-2.485,8.258-6.525,8.258a3.237,3.237,0,0,1-2.443-.861,2.9,2.9,0,0,1-.641-2.237,16.175,16.175,0,0,1,.652-2.48l5.066-16.427H259.6l-4.527,14.284a23.353,23.353,0,0,0-1.055,5.239,7.746,7.746,0,0,0,1.836,6.127c1.916,2.072,5.231,3.123,9.858,3.123,11.054,0,13.943-6.643,16.571-15.329l4.094-13.445Z" transform="translate(-12.847 -11.896)" fill="#fff"/>
    <path id="Trazado_77" data-name="Trazado 77" d="M317.818,353.271a31.389,31.389,0,0,0-10.391-1.465c-10.965,0-18.836,6.408-19.586,15.947a11.643,11.643,0,0,0,2.847,9.085c2.541,2.751,6.555,4.2,11.6,4.2a31.84,31.84,0,0,0,8.018-1.071l.41-.123,1.7-7.612-1.331.6a17.455,17.455,0,0,1-7.171,1.433c-2.429,0-4.307-.639-5.429-1.851a5.54,5.54,0,0,1-1.232-4.365c.362-4.586,3.43-9.484,10.96-9.484a13.288,13.288,0,0,1,6.749,1.52l.718.4,2.863-6.97Z" transform="translate(-15.232 -11.861)" fill="#fff"/>
    <path id="Trazado_78" data-name="Trazado 78" d="M346.832,352.3H323l-2.122,6.765h7.233l-6.641,21.546h9.379l6.641-21.546h7.226Z" transform="translate(-17.566 -11.896)" fill="#fff"/>
    <path id="Trazado_79" data-name="Trazado 79" d="M361.491,351.806c-8.638,0-13.872,3.527-14.355,9.675-.385,4.868,3.735,6.411,6.742,7.537,2.363.888,3.806,1.492,3.711,2.736-.175,2.194-3.658,2.52-5.719,2.52a14.677,14.677,0,0,1-6.637-1.425l-.73-.459-2.9,7.009.778.23a34.336,34.336,0,0,0,9.072,1.414c9.571,0,15.119-3.559,15.629-10.02.426-5.39-3.909-7.035-7.074-8.237-2.137-.812-3.427-1.371-3.354-2.306.106-1.336,1.614-1.9,5.043-1.9a14.288,14.288,0,0,1,6,1.164l.676.306,2.866-6.687-.654-.294C368.273,352.024,364.363,351.806,361.491,351.806Z" transform="translate(-19.028 -11.861)" fill="#fff"/>
    <path id="Trazado_80" data-name="Trazado 80" d="M413.474,353.271a31.4,31.4,0,0,0-10.393-1.465c-10.964,0-18.836,6.408-19.584,15.947a11.636,11.636,0,0,0,2.847,9.085c2.539,2.751,6.553,4.2,11.6,4.2a31.825,31.825,0,0,0,8.019-1.071l.408-.123,1.7-7.612-1.328.6a17.468,17.468,0,0,1-7.174,1.433c-2.428,0-4.3-.639-5.427-1.851a5.541,5.541,0,0,1-1.233-4.365c.364-4.586,3.433-9.484,10.962-9.484a13.278,13.278,0,0,1,6.749,1.52l.718.4,2.863-6.97Z" transform="translate(-21.98 -11.861)" fill="#fff"/>
    <path id="Trazado_81" data-name="Trazado 81" d="M443.072,355.424c-2.218-2.4-5.655-3.617-10.223-3.617-11.035,0-18.138,6.55-19,17.524a10.371,10.371,0,0,0,2.512,8.094c2.22,2.4,5.662,3.617,10.232,3.617,11.035,0,18.138-6.535,19-17.487A10.413,10.413,0,0,0,443.072,355.424Zm-6.952,8.595c-.313,3.966-2.927,10.256-8.611,10.256a4.125,4.125,0,0,1-3.163-1.124c-1.038-1.123-1.129-2.946-1.023-4.282.312-3.982,2.928-10.294,8.613-10.294a4.1,4.1,0,0,1,3.151,1.126C436.131,360.834,436.225,362.676,436.119,364.018Z" transform="translate(-24.121 -11.861)" fill="#fff"/>
    <path id="Trazado_82" data-name="Trazado 82" d="M447.015,382.18h8.544l2.349-7.691h-8.544Z" transform="translate(-26.464 -13.461)" fill="#fff"/>
  </g>
</svg>
