<svg id="logo-bit" xmlns="http://www.w3.org/2000/svg" width="414.922" height="149.585" viewBox="0 0 414.922 149.585">
  <path id="Trazado_142" data-name="Trazado 142" d="M173.347,250.655H-187.077v-119.2H173.85v55.322h-1.006V132.464H-186.07V249.65H173.347Z" transform="translate(187.077 -131.459)" fill="#fff"/>
  <g id="Grupo_27" data-name="Grupo 27" transform="translate(254.137 16.443)">
    <g id="Grupo_26" data-name="Grupo 26">
      <path id="Trazado_143" data-name="Trazado 143" d="M-30.93,140.858a13.079,13.079,0,0,1,2.75.266A5.947,5.947,0,0,1-26.05,142a4.046,4.046,0,0,1,1.375,1.611,5.634,5.634,0,0,1,.49,2.484,4.641,4.641,0,0,1-.724,2.661,5.253,5.253,0,0,1-2.145,1.744,5.079,5.079,0,0,1,2.913,1.966,5.859,5.859,0,0,1,.96,3.387,5.8,5.8,0,0,1-.621,2.764,5.39,5.39,0,0,1-1.671,1.909,7.4,7.4,0,0,1-2.4,1.093,10.747,10.747,0,0,1-2.766.355H-40.865V140.858Zm-.591,8.546a3.333,3.333,0,0,0,2.04-.591,2.229,2.229,0,0,0,.8-1.923,2.433,2.433,0,0,0-.266-1.211,1.962,1.962,0,0,0-.709-.74,3.023,3.023,0,0,0-1.022-.371,6.847,6.847,0,0,0-1.2-.1h-4.346V149.4Zm.268,8.961a6.166,6.166,0,0,0,1.3-.135,3.154,3.154,0,0,0,1.1-.443,2.241,2.241,0,0,0,.752-.843,2.875,2.875,0,0,0,.283-1.359,2.73,2.73,0,0,0-.918-2.322,3.907,3.907,0,0,0-2.425-.695h-5.056v5.8Z" transform="translate(42.522 -140.858)" fill="#fff"/>
      <path id="Trazado_144" data-name="Trazado 144" d="M-24.407,155.987a3.757,3.757,0,0,0,2.72.917,3.741,3.741,0,0,0,2.189-.637,2.649,2.649,0,0,0,1.125-1.344h3.695a7.023,7.023,0,0,1-2.72,3.933,8.02,8.02,0,0,1-4.435,1.183,8.714,8.714,0,0,1-3.252-.577,6.776,6.776,0,0,1-2.456-1.641,7.4,7.4,0,0,1-1.552-2.544,9.322,9.322,0,0,1-.548-3.252,8.948,8.948,0,0,1,.562-3.193,7.461,7.461,0,0,1,1.6-2.558,7.474,7.474,0,0,1,2.47-1.7,7.933,7.933,0,0,1,3.179-.621,7.269,7.269,0,0,1,3.4.754,6.818,6.818,0,0,1,2.383,2.026,8.366,8.366,0,0,1,1.344,2.9,10.784,10.784,0,0,1,.3,3.4H-25.44A4.242,4.242,0,0,0-24.407,155.987Zm4.746-8.042a2.946,2.946,0,0,0-2.292-.829,3.642,3.642,0,0,0-1.671.339,3.21,3.21,0,0,0-1.065.843,3.1,3.1,0,0,0-.562,1.064,4.688,4.688,0,0,0-.191,1.006h6.83A4.856,4.856,0,0,0-19.66,147.945Z" transform="translate(50.934 -138.54)" fill="#fff"/>
      <path id="Trazado_145" data-name="Trazado 145" d="M-15.665,155.854a2.444,2.444,0,0,0,.724.8,3.1,3.1,0,0,0,1.02.458,4.742,4.742,0,0,0,1.2.149,4.429,4.429,0,0,0,.932-.1,3.113,3.113,0,0,0,.887-.324,1.983,1.983,0,0,0,.665-.591,1.546,1.546,0,0,0,.268-.931q0-.95-1.256-1.421a25.234,25.234,0,0,0-3.506-.946c-.611-.138-1.209-.3-1.79-.488a6.037,6.037,0,0,1-1.552-.74,3.565,3.565,0,0,1-1.093-1.153,3.262,3.262,0,0,1-.415-1.7,4.615,4.615,0,0,1,.576-2.425,4.241,4.241,0,0,1,1.526-1.492,6.612,6.612,0,0,1,2.127-.77,13.064,13.064,0,0,1,2.425-.222,12.129,12.129,0,0,1,2.411.236,6.4,6.4,0,0,1,2.084.8,4.781,4.781,0,0,1,1.526,1.494,5.023,5.023,0,0,1,.724,2.351H-10.18a1.843,1.843,0,0,0-.917-1.643,4.2,4.2,0,0,0-1.951-.429,7.706,7.706,0,0,0-.77.044,2.515,2.515,0,0,0-.752.194,1.51,1.51,0,0,0-.577.429,1.13,1.13,0,0,0-.236.752,1.155,1.155,0,0,0,.413.918,3.162,3.162,0,0,0,1.079.576,13.012,13.012,0,0,0,1.522.4q.861.178,1.744.385a18.143,18.143,0,0,1,1.791.5,5.9,5.9,0,0,1,1.552.786,3.818,3.818,0,0,1,1.1,1.211,3.573,3.573,0,0,1,.413,1.79,4.868,4.868,0,0,1-.607,2.53,4.827,4.827,0,0,1-1.582,1.639,6.481,6.481,0,0,1-2.232.873,12.98,12.98,0,0,1-2.558.252,12.618,12.618,0,0,1-2.6-.268,6.875,6.875,0,0,1-2.262-.885,5.065,5.065,0,0,1-1.625-1.643,5.136,5.136,0,0,1-.7-2.558h3.992A2.285,2.285,0,0,0-15.665,155.854Z" transform="translate(58.205 -138.54)" fill="#fff"/>
      <path id="Trazado_146" data-name="Trazado 146" d="M-1.432,146.152v2.808H-4.509v7.572a2.071,2.071,0,0,0,.355,1.421,2.066,2.066,0,0,0,1.421.353c.236,0,.464-.009.681-.03a5.588,5.588,0,0,0,.621-.087v3.252a9.537,9.537,0,0,1-1.184.117q-.651.031-1.27.031a12.2,12.2,0,0,1-1.849-.133,4.4,4.4,0,0,1-1.538-.518,2.742,2.742,0,0,1-1.05-1.1,3.9,3.9,0,0,1-.385-1.863v-9.02H-11.25v-2.808h2.542v-4.584h4.2v4.584Z" transform="translate(64.718 -140.326)" fill="#fff"/>
      <path id="Trazado_147" data-name="Trazado 147" d="M-38.718,158.03v21.114H-40.73V158.03Z" transform="translate(42.623 -127.988)" fill="#fff"/>
      <path id="Trazado_148" data-name="Trazado 148" d="M-35.419,161.566V164.2h.058a4.476,4.476,0,0,1,1.893-2.232,5.554,5.554,0,0,1,2.986-.843,7.507,7.507,0,0,1,2.677.415,4.239,4.239,0,0,1,1.73,1.169,4.335,4.335,0,0,1,.917,1.847,10.353,10.353,0,0,1,.268,2.455v9.818h-1.865V167.3a8.8,8.8,0,0,0-.177-1.819,3.85,3.85,0,0,0-.621-1.463,3,3,0,0,0-1.2-.976,4.378,4.378,0,0,0-1.877-.355,4.756,4.756,0,0,0-2,.4,4.347,4.347,0,0,0-1.478,1.093,5.054,5.054,0,0,0-.946,1.659,6.7,6.7,0,0,0-.369,2.084v8.9h-1.863V161.566Z" transform="translate(45.207 -125.67)" fill="#fff"/>
      <path id="Trazado_149" data-name="Trazado 149" d="M-24.635,165.453v13.691H-26.5V165.453h-2.6v-1.569h2.6v-1.389a10.322,10.322,0,0,1,.149-1.8,3.528,3.528,0,0,1,.562-1.419,2.7,2.7,0,0,1,1.139-.917,4.532,4.532,0,0,1,1.849-.325c.275,0,.53.009.768.028s.5.049.8.089v1.6c-.255-.038-.492-.073-.709-.1a4.785,4.785,0,0,0-.651-.044,2.413,2.413,0,0,0-1.183.236,1.463,1.463,0,0,0-.607.635,2.413,2.413,0,0,0-.222.931q-.029.533-.028,1.155v1.33h3.016v1.569Z" transform="translate(51.339 -127.988)" fill="#fff"/>
      <path id="Trazado_150" data-name="Trazado 150" d="M-22.1,161.467v3.579h.059a5.846,5.846,0,0,1,2.2-2.869,5.785,5.785,0,0,1,3.562-.917v1.865a5.619,5.619,0,0,0-2.308.339,5.2,5.2,0,0,0-1.788,1.137,5.157,5.157,0,0,0-1.169,1.76,5.915,5.915,0,0,0-.413,2.232v8.133H-23.81V161.467Z" transform="translate(55.304 -125.572)" fill="#fff"/>
      <path id="Trazado_151" data-name="Trazado 151" d="M-17.747,163.933a4.369,4.369,0,0,1,1.286-1.6,5.443,5.443,0,0,1,1.907-.917,9.337,9.337,0,0,1,2.425-.3,10.558,10.558,0,0,1,2.01.192,4.871,4.871,0,0,1,1.805.724,3.988,3.988,0,0,1,1.3,1.492,5.41,5.41,0,0,1,.5,2.5v8.1a.979.979,0,0,0,1.1,1.123,1.423,1.423,0,0,0,.591-.119v1.569c-.217.039-.411.068-.577.087a5.731,5.731,0,0,1-.637.03,2.789,2.789,0,0,1-1.137-.192,1.513,1.513,0,0,1-.667-.548,2.079,2.079,0,0,1-.311-.841,7.3,7.3,0,0,1-.073-1.081h-.058a12.017,12.017,0,0,1-1.022,1.316,5.044,5.044,0,0,1-1.153.962,5.285,5.285,0,0,1-1.449.591,7.924,7.924,0,0,1-1.937.206,7.693,7.693,0,0,1-2-.25,4.478,4.478,0,0,1-1.627-.8A3.843,3.843,0,0,1-18.56,174.8a4.628,4.628,0,0,1-.4-2,3.956,3.956,0,0,1,.709-2.5,4.492,4.492,0,0,1,1.877-1.375,10.92,10.92,0,0,1,2.633-.665q1.464-.192,2.972-.369a9.94,9.94,0,0,0,1.034-.149,1.793,1.793,0,0,0,.74-.31,1.44,1.44,0,0,0,.458-.607,2.6,2.6,0,0,0,.164-1,3.413,3.413,0,0,0-.311-1.554,2.464,2.464,0,0,0-.857-.96,3.494,3.494,0,0,0-1.272-.488,8.554,8.554,0,0,0-1.554-.133,4.711,4.711,0,0,0-2.9.841,3.3,3.3,0,0,0-1.184,2.706h-1.861A6.147,6.147,0,0,1-17.747,163.933Zm9.314,4.554a1.069,1.069,0,0,1-.679.474,6.994,6.994,0,0,1-.887.206q-1.184.207-2.441.369a13.359,13.359,0,0,0-2.292.488,4.485,4.485,0,0,0-1.7.931,2.225,2.225,0,0,0-.667,1.732,2.7,2.7,0,0,0,.282,1.254,3.018,3.018,0,0,0,.754.946,3.281,3.281,0,0,0,1.1.607,3.977,3.977,0,0,0,1.272.206,6.417,6.417,0,0,0,2.04-.324,5.037,5.037,0,0,0,1.7-.946,4.623,4.623,0,0,0,1.153-1.51,4.56,4.56,0,0,0,.43-2.01v-2.425Z" transform="translate(58.94 -125.67)" fill="#fff"/>
      <path id="Trazado_152" data-name="Trazado 152" d="M-41.812,179.106v-3.9h17.3v3.9h-6.328v17.211h-4.645V179.106Z" transform="translate(41.812 -115.119)" fill="#fff"/>
      <path id="Trazado_153" data-name="Trazado 153" d="M-27.855,190.331a3.755,3.755,0,0,0,2.72.917,3.753,3.753,0,0,0,2.189-.637,2.645,2.645,0,0,0,1.123-1.344h3.7a7.023,7.023,0,0,1-2.72,3.933,8.02,8.02,0,0,1-4.435,1.183,8.689,8.689,0,0,1-3.254-.579,6.759,6.759,0,0,1-2.455-1.639,7.4,7.4,0,0,1-1.554-2.544,9.332,9.332,0,0,1-.546-3.254,8.924,8.924,0,0,1,.562-3.193,7.479,7.479,0,0,1,1.6-2.558,7.507,7.507,0,0,1,2.469-1.7,7.912,7.912,0,0,1,3.181-.621,7.274,7.274,0,0,1,3.4.754,6.8,6.8,0,0,1,2.381,2.026,8.329,8.329,0,0,1,1.345,2.9,10.8,10.8,0,0,1,.3,3.4H-28.89A4.246,4.246,0,0,0-27.855,190.331Zm4.746-8.044a2.955,2.955,0,0,0-2.294-.827,3.652,3.652,0,0,0-1.671.339,3.185,3.185,0,0,0-1.064.843,3.1,3.1,0,0,0-.562,1.064,4.812,4.812,0,0,0-.192,1.006h6.832A4.87,4.87,0,0,0-23.108,182.287Z" transform="translate(48.35 -112.8)" fill="#fff"/>
      <path id="Trazado_154" data-name="Trazado 154" d="M-15.457,181.46a2.951,2.951,0,0,0-1.687.458,3.647,3.647,0,0,0-1.109,1.183,5.139,5.139,0,0,0-.605,1.6,8.623,8.623,0,0,0-.177,1.732,8.257,8.257,0,0,0,.177,1.685,5.216,5.216,0,0,0,.576,1.552,3.322,3.322,0,0,0,1.081,1.141,2.958,2.958,0,0,0,1.655.443,3.08,3.08,0,0,0,2.322-.843,3.984,3.984,0,0,0,1.02-2.262h4.05a6.923,6.923,0,0,1-2.364,4.641,7.634,7.634,0,0,1-5,1.6,8.321,8.321,0,0,1-3.147-.579,6.965,6.965,0,0,1-2.441-1.61,7.343,7.343,0,0,1-1.566-2.47,8.523,8.523,0,0,1-.563-3.149,10.2,10.2,0,0,1,.518-3.3,7.449,7.449,0,0,1,1.522-2.631,6.962,6.962,0,0,1,2.456-1.73,8.311,8.311,0,0,1,3.31-.621,9.655,9.655,0,0,1,2.617.353,7.022,7.022,0,0,1,2.25,1.081,5.793,5.793,0,0,1,1.61,1.8,5.779,5.779,0,0,1,.712,2.558h-4.111A2.816,2.816,0,0,0-15.457,181.46Z" transform="translate(55.735 -112.8)" fill="#fff"/>
      <path id="Trazado_155" data-name="Trazado 155" d="M-9.063,175.2v7.955h.089a4.847,4.847,0,0,1,2.04-1.935,5.493,5.493,0,0,1,2.425-.607,7.126,7.126,0,0,1,2.766.458,4.122,4.122,0,0,1,1.7,1.27,4.984,4.984,0,0,1,.873,1.982,12.564,12.564,0,0,1,.25,2.589v9.4h-4.2v-8.635a5.359,5.359,0,0,0-.591-2.824,2.293,2.293,0,0,0-2.1-.932,2.9,2.9,0,0,0-2.484,1.022,5.652,5.652,0,0,0-.77,3.355v8.014h-4.2V175.2Z" transform="translate(63.21 -115.119)" fill="#fff"/>
      <path id="Trazado_156" data-name="Trazado 156" d="M.753,178.71v2.127H.841A4.819,4.819,0,0,1,2.912,178.9a5.962,5.962,0,0,1,2.6-.607,7.126,7.126,0,0,1,2.766.458,4.1,4.1,0,0,1,1.7,1.27,4.984,4.984,0,0,1,.873,1.982,12.439,12.439,0,0,1,.252,2.589V194H6.9v-8.635a5.359,5.359,0,0,0-.591-2.824,2.291,2.291,0,0,0-2.1-.932,2.9,2.9,0,0,0-2.484,1.022,5.654,5.654,0,0,0-.768,3.355V194h-4.2V178.71Z" transform="translate(70.722 -112.8)" fill="#fff"/>
      <path id="Trazado_157" data-name="Trazado 157" d="M7.078,183.041a6.986,6.986,0,0,1,4.08-4.171,8.756,8.756,0,0,1,3.252-.576,8.867,8.867,0,0,1,3.268.576,6.956,6.956,0,0,1,4.1,4.171,9.388,9.388,0,0,1,.562,3.326,9.264,9.264,0,0,1-.562,3.314,7.219,7.219,0,0,1-1.6,2.528,6.945,6.945,0,0,1-2.5,1.611,9.053,9.053,0,0,1-3.268.563,8.939,8.939,0,0,1-3.252-.563,6.957,6.957,0,0,1-2.484-1.611,7.169,7.169,0,0,1-1.6-2.528,9.226,9.226,0,0,1-.563-3.314A9.348,9.348,0,0,1,7.078,183.041Zm3.814,5.116a4.776,4.776,0,0,0,.605,1.568,3.247,3.247,0,0,0,1.139,1.109,3.476,3.476,0,0,0,1.774.415,3.555,3.555,0,0,0,1.79-.415,3.207,3.207,0,0,0,1.155-1.109,4.735,4.735,0,0,0,.6-1.568,8.772,8.772,0,0,0,.178-1.79,9.023,9.023,0,0,0-.178-1.8,4.582,4.582,0,0,0-.6-1.566,3.374,3.374,0,0,0-1.155-1.109,3.467,3.467,0,0,0-1.79-.429A3.23,3.23,0,0,0,11.5,183a4.62,4.62,0,0,0-.605,1.566,9.152,9.152,0,0,0-.177,1.8A8.9,8.9,0,0,0,10.892,188.157Z" transform="translate(78.032 -112.8)" fill="#fff"/>
      <path id="Trazado_158" data-name="Trazado 158" d="M21.38,175.2v21.116h-4.2V175.2Z" transform="translate(86.025 -115.119)" fill="#fff"/>
      <path id="Trazado_159" data-name="Trazado 159" d="M21.766,183.041a6.986,6.986,0,0,1,4.08-4.171,8.766,8.766,0,0,1,3.254-.576,8.88,8.88,0,0,1,3.268.576,6.968,6.968,0,0,1,4.1,4.171,9.427,9.427,0,0,1,.562,3.326,9.3,9.3,0,0,1-.562,3.314,7.2,7.2,0,0,1-1.6,2.528,6.938,6.938,0,0,1-2.5,1.611,9.066,9.066,0,0,1-3.268.563,8.949,8.949,0,0,1-3.254-.563,6.973,6.973,0,0,1-2.484-1.611,7.194,7.194,0,0,1-1.6-2.528,9.226,9.226,0,0,1-.562-3.314A9.349,9.349,0,0,1,21.766,183.041Zm3.816,5.116a4.735,4.735,0,0,0,.6,1.568,3.252,3.252,0,0,0,1.141,1.109,3.467,3.467,0,0,0,1.774.415,3.555,3.555,0,0,0,1.79-.415,3.216,3.216,0,0,0,1.153-1.109,4.776,4.776,0,0,0,.605-1.568,8.9,8.9,0,0,0,.177-1.79,9.152,9.152,0,0,0-.177-1.8A4.62,4.62,0,0,0,32.042,183a3.385,3.385,0,0,0-1.153-1.109,3.467,3.467,0,0,0-1.79-.429,3.381,3.381,0,0,0-1.774.429A3.426,3.426,0,0,0,26.185,183a4.582,4.582,0,0,0-.6,1.566,9.023,9.023,0,0,0-.178,1.8A8.772,8.772,0,0,0,25.581,188.157Z" transform="translate(89.041 -112.8)" fill="#fff"/>
      <path id="Trazado_160" data-name="Trazado 160" d="M46.45,195.121a5.15,5.15,0,0,1-1.079,2.2,6.4,6.4,0,0,1-2.4,1.73,10.3,10.3,0,0,1-4.2.71,9.878,9.878,0,0,1-2.294-.28,7.3,7.3,0,0,1-2.129-.875,5.221,5.221,0,0,1-1.6-1.522,4.421,4.421,0,0,1-.724-2.232H36.2a2.391,2.391,0,0,0,1.153,1.641,4.147,4.147,0,0,0,1.98.458,3.05,3.05,0,0,0,2.587-1.064,4.19,4.19,0,0,0,.786-2.691v-2.012H42.65a4.151,4.151,0,0,1-1.937,1.79,6.292,6.292,0,0,1-2.647.576,6.684,6.684,0,0,1-2.957-.605,5.613,5.613,0,0,1-2.04-1.657,6.888,6.888,0,0,1-1.169-2.453,11.641,11.641,0,0,1-.369-2.974,9.5,9.5,0,0,1,.429-2.853,7.427,7.427,0,0,1,1.256-2.425,6.069,6.069,0,0,1,2.056-1.671,6.161,6.161,0,0,1,2.824-.621,5.95,5.95,0,0,1,2.649.562,4.572,4.572,0,0,1,1.905,1.893h.061v-2.04H46.7v14.313A10.206,10.206,0,0,1,46.45,195.121ZM40.7,190.036a3.283,3.283,0,0,0,1.123-.947,4.211,4.211,0,0,0,.667-1.345,5.621,5.621,0,0,0,.222-1.583,8.739,8.739,0,0,0-.178-1.788,4.483,4.483,0,0,0-.591-1.494,3.059,3.059,0,0,0-1.1-1.034,3.439,3.439,0,0,0-1.714-.385,3.06,3.06,0,0,0-1.522.355,3.18,3.18,0,0,0-1.065.96,4.024,4.024,0,0,0-.621,1.391,6.786,6.786,0,0,0-.192,1.639,8.343,8.343,0,0,0,.163,1.643,4.444,4.444,0,0,0,.562,1.464,3.3,3.3,0,0,0,1.05,1.064,2.972,2.972,0,0,0,1.627.413A3.349,3.349,0,0,0,40.7,190.036Z" transform="translate(96.782 -112.8)" fill="#fff"/>
      <path id="Trazado_161" data-name="Trazado 161" d="M48.526,198.375a6.1,6.1,0,0,1-3.371.8q-.651,0-1.286-.044t-1.286-.1v-3.459c.392.038.8.079,1.211.117a8.673,8.673,0,0,0,1.242.031,1.636,1.636,0,0,0,1.228-.651,2.1,2.1,0,0,0,.4-1.242,2.51,2.51,0,0,0-.178-.946l-5.352-14.342H45.6L49.058,189h.059l3.342-10.469h4.347l-6.387,17.182A5.176,5.176,0,0,1,48.526,198.375Z" transform="translate(103.978 -112.622)" fill="#fff"/>
    </g>
  </g>
  <path id="Trazado_162" data-name="Trazado 162" d="M-29.018,137.52h-67c3.865,0,9.554,2.687,9.554,9.5l.019,9.575A9.328,9.328,0,0,1-96,166.127h19.15V223.1A10.148,10.148,0,0,0-66.7,233.252h18A10.148,10.148,0,0,0-38.557,223.1V166.127h9.538a9.4,9.4,0,0,0,9.573-9.535l.038-9.51A9.49,9.49,0,0,0-29.018,137.52Z" transform="translate(255.322 -126.917)" fill="#fff"/>
  <g id="Grupo_28" data-name="Grupo 28" transform="translate(121.021 48.888)">
    <path id="Trazado_163" data-name="Trazado 163" d="M-79.6,168.979a9.579,9.579,0,0,0-9.573-9.575h-19.15a9.581,9.581,0,0,0-9.575,9.575v38.3a9.581,9.581,0,0,0,9.575,9.575h19.15a9.579,9.579,0,0,0,9.573-9.575Z" transform="translate(117.901 -159.404)" fill="#fff"/>
  </g>
  <g id="Grupo_29" data-name="Grupo 29" transform="translate(121.021 10.592)">
    <path id="Trazado_164" data-name="Trazado 164" d="M-79.6,147.087a9.578,9.578,0,0,0-9.573-9.573h-19.15a9.579,9.579,0,0,0-9.575,9.573v9.528a9.58,9.58,0,0,0,9.575,9.575h19.15a9.578,9.578,0,0,0,9.573-9.575Z" transform="translate(117.901 -137.514)" fill="#fff"/>
  </g>
  <path id="Trazado_165" data-name="Trazado 165" d="M-96.727,175.843c-1.9-.023-2.965-.023-4.8-.023a9.683,9.683,0,0,0,9.612-9.886V147.074a9.706,9.706,0,0,0-9.612-9.55L-173.4,137.5a4.856,4.856,0,0,0-4.724,4.787v86.192a4.806,4.806,0,0,0,4.724,4.788h44.362a5.7,5.7,0,0,0,.628-.033h30.483c11.008,0,15.548-7.978,15.548-14.272v-28.8C-82.378,184.739-87.637,175.843-96.727,175.843Zm-52.633-24a4.751,4.751,0,0,1,4.748-4.748h19.188a4.753,4.753,0,0,1,4.75,4.748V161.5a4.753,4.753,0,0,1-4.75,4.75h-19.188a4.752,4.752,0,0,1-4.748-4.75Zm28.723,67.049a4.867,4.867,0,0,1-4.729,4.8h-19.208a4.79,4.79,0,0,1-4.787-4.8v-32.7a4.891,4.891,0,0,1,4.787-4.788h19.131a4.918,4.918,0,0,1,4.806,4.788Z" transform="translate(193.788 -126.931)" fill="#fff"/>
  <g id="Grupo_30" data-name="Grupo 30" transform="translate(12.362 131.387)">
    <path id="Trazado_166" data-name="Trazado 166" d="M-177.919,220.913a3.682,3.682,0,0,0,1.212,1.445,5.047,5.047,0,0,0,1.825.772,10.5,10.5,0,0,0,2.253.233,6.438,6.438,0,0,0,1.494-.2,5.187,5.187,0,0,0,1.506-.625,3.843,3.843,0,0,0,1.163-1.1,2.8,2.8,0,0,0,.465-1.629,2.39,2.39,0,0,0-.331-1.274,3,3,0,0,0-.857-.906,5.075,5.075,0,0,0-1.163-.6,11.749,11.749,0,0,0-1.249-.381l-3.894-.953a11.659,11.659,0,0,1-1.482-.49,4.185,4.185,0,0,1-1.261-.784,3.719,3.719,0,0,1-.87-1.2,4.093,4.093,0,0,1-.331-1.737,5.571,5.571,0,0,1,.245-1.494,4.143,4.143,0,0,1,.918-1.617,5.372,5.372,0,0,1,1.849-1.286,7.4,7.4,0,0,1,3.013-.527,8.767,8.767,0,0,1,2.474.343,6.078,6.078,0,0,1,2.057,1.029,5.123,5.123,0,0,1,1.408,1.7,5.062,5.062,0,0,1,.527,2.364h-1.665a4.053,4.053,0,0,0-.453-1.751A3.931,3.931,0,0,0-170.118,209a4.611,4.611,0,0,0-1.494-.758,6.063,6.063,0,0,0-1.776-.257,7.321,7.321,0,0,0-1.653.184,4.1,4.1,0,0,0-1.4.588,3.037,3.037,0,0,0-.967,1.065,3.343,3.343,0,0,0-.367,1.641,2.517,2.517,0,0,0,.208,1.065,2.227,2.227,0,0,0,.576.77,2.991,2.991,0,0,0,.845.516,6.383,6.383,0,0,0,1.016.318l4.262,1.053a12.255,12.255,0,0,1,1.751.6,5.753,5.753,0,0,1,1.445.882,3.73,3.73,0,0,1,.98,1.286,4.319,4.319,0,0,1,.355,1.835,6.782,6.782,0,0,1-.061.786,3.922,3.922,0,0,1-.294,1.041,5.246,5.246,0,0,1-.661,1.114,4.149,4.149,0,0,1-1.176,1.016,6.791,6.791,0,0,1-1.849.735,10.832,10.832,0,0,1-2.645.282,11.047,11.047,0,0,1-2.866-.355,6.179,6.179,0,0,1-2.253-1.09,4.8,4.8,0,0,1-1.433-1.886,6.191,6.191,0,0,1-.429-2.768h1.666A4.93,4.93,0,0,0-177.919,220.913Z" transform="translate(180.01 -206.56)" fill="#fff"/>
    <path id="Trazado_167" data-name="Trazado 167" d="M-165.939,212.218a8.614,8.614,0,0,1,1.543-2.9,7.448,7.448,0,0,1,2.584-2.008,8.248,8.248,0,0,1,3.613-.747,8.166,8.166,0,0,1,3.6.747,7.484,7.484,0,0,1,2.572,2.008,8.616,8.616,0,0,1,1.543,2.9,11.475,11.475,0,0,1,.514,3.453,11.471,11.471,0,0,1-.514,3.452,8.484,8.484,0,0,1-1.543,2.892,7.533,7.533,0,0,1-2.572,1.994,8.141,8.141,0,0,1-3.6.749,8.223,8.223,0,0,1-3.613-.749,7.5,7.5,0,0,1-2.584-1.994,8.483,8.483,0,0,1-1.543-2.892,11.471,11.471,0,0,1-.514-3.452A11.474,11.474,0,0,1-165.939,212.218Zm1.531,6.258a7.527,7.527,0,0,0,1.176,2.472,5.9,5.9,0,0,0,2.045,1.751,6.285,6.285,0,0,0,2.988.663,6.215,6.215,0,0,0,2.976-.663,5.957,5.957,0,0,0,2.033-1.751,7.527,7.527,0,0,0,1.176-2.472,10.53,10.53,0,0,0,.38-2.8,10.509,10.509,0,0,0-.38-2.818,7.565,7.565,0,0,0-1.176-2.46,5.957,5.957,0,0,0-2.033-1.751,6.235,6.235,0,0,0-2.976-.661,6.306,6.306,0,0,0-2.988.661,5.9,5.9,0,0,0-2.045,1.751,7.565,7.565,0,0,0-1.176,2.46,10.508,10.508,0,0,0-.38,2.818A10.53,10.53,0,0,0-164.408,218.476Z" transform="translate(190.171 -206.56)" fill="#fff"/>
    <path id="Trazado_168" data-name="Trazado 168" d="M-138.368,210.418a4.949,4.949,0,0,0-1.225-1.335,5.5,5.5,0,0,0-1.592-.822,5.958,5.958,0,0,0-1.825-.28,6.306,6.306,0,0,0-2.988.661,5.9,5.9,0,0,0-2.045,1.751,7.564,7.564,0,0,0-1.176,2.46,10.508,10.508,0,0,0-.38,2.818,10.53,10.53,0,0,0,.38,2.8,7.526,7.526,0,0,0,1.176,2.472A5.9,5.9,0,0,0-146,222.7a6.285,6.285,0,0,0,2.988.663,5.31,5.31,0,0,0,2.2-.441,5.269,5.269,0,0,0,1.69-1.2,6.186,6.186,0,0,0,1.151-1.776,7.414,7.414,0,0,0,.563-2.192h1.666a9.425,9.425,0,0,1-.759,2.915,7.206,7.206,0,0,1-1.519,2.2,6.461,6.461,0,0,1-2.192,1.4,7.717,7.717,0,0,1-2.8.49,8.223,8.223,0,0,1-3.613-.749,7.5,7.5,0,0,1-2.584-1.994,8.483,8.483,0,0,1-1.543-2.892,11.47,11.47,0,0,1-.514-3.452,11.473,11.473,0,0,1,.514-3.453,8.615,8.615,0,0,1,1.543-2.9,7.448,7.448,0,0,1,2.584-2.008,8.248,8.248,0,0,1,3.613-.747,8.205,8.205,0,0,1,2.437.367,6.992,6.992,0,0,1,2.155,1.09,6.378,6.378,0,0,1,1.617,1.774,6.02,6.02,0,0,1,.821,2.427h-1.666A5.608,5.608,0,0,0-138.368,210.418Z" transform="translate(201.556 -206.56)" fill="#fff"/>
    <path id="Trazado_169" data-name="Trazado 169" d="M-134.437,206.77v17.488H-136.1V206.77Z" transform="translate(212.92 -206.403)" fill="#fff"/>
    <path id="Trazado_170" data-name="Trazado 170" d="M-128.322,212.218a8.588,8.588,0,0,1,1.545-2.9,7.426,7.426,0,0,1,2.582-2.008,8.25,8.25,0,0,1,3.614-.747,8.163,8.163,0,0,1,3.6.747,7.484,7.484,0,0,1,2.572,2.008,8.615,8.615,0,0,1,1.543,2.9,11.474,11.474,0,0,1,.516,3.453,11.471,11.471,0,0,1-.516,3.452,8.483,8.483,0,0,1-1.543,2.892,7.533,7.533,0,0,1-2.572,1.994,8.139,8.139,0,0,1-3.6.749,8.225,8.225,0,0,1-3.614-.749,7.474,7.474,0,0,1-2.582-1.994,8.457,8.457,0,0,1-1.545-2.892,11.47,11.47,0,0,1-.514-3.452A11.474,11.474,0,0,1-128.322,212.218Zm1.531,6.258a7.5,7.5,0,0,0,1.177,2.472,5.871,5.871,0,0,0,2.045,1.751,6.275,6.275,0,0,0,2.988.663,6.208,6.208,0,0,0,2.974-.663,5.941,5.941,0,0,0,2.033-1.751,7.492,7.492,0,0,0,1.176-2.472,10.532,10.532,0,0,0,.381-2.8,10.51,10.51,0,0,0-.381-2.818,7.529,7.529,0,0,0-1.176-2.46,5.941,5.941,0,0,0-2.033-1.751,6.228,6.228,0,0,0-2.974-.661,6.3,6.3,0,0,0-2.988.661,5.871,5.871,0,0,0-2.045,1.751,7.533,7.533,0,0,0-1.177,2.46,10.509,10.509,0,0,0-.38,2.818A10.531,10.531,0,0,0-126.791,218.476Z" transform="translate(218.364 -206.56)" fill="#fff"/>
    <path id="Trazado_171" data-name="Trazado 171" d="M-92.1,210.418a4.926,4.926,0,0,0-1.226-1.335,5.5,5.5,0,0,0-1.592-.822,5.942,5.942,0,0,0-1.825-.28,6.306,6.306,0,0,0-2.988.661,5.919,5.919,0,0,0-2.045,1.751,7.526,7.526,0,0,0-1.174,2.46,10.508,10.508,0,0,0-.38,2.818,10.53,10.53,0,0,0,.38,2.8,7.489,7.489,0,0,0,1.174,2.472,5.919,5.919,0,0,0,2.045,1.751,6.285,6.285,0,0,0,2.988.663,5.31,5.31,0,0,0,2.2-.441,5.268,5.268,0,0,0,1.69-1.2,6.15,6.15,0,0,0,1.151-1.776,7.361,7.361,0,0,0,.563-2.192h1.667a9.426,9.426,0,0,1-.761,2.915,7.2,7.2,0,0,1-1.517,2.2,6.468,6.468,0,0,1-2.194,1.4,7.716,7.716,0,0,1-2.8.49,8.223,8.223,0,0,1-3.613-.749,7.5,7.5,0,0,1-2.584-1.994,8.51,8.51,0,0,1-1.541-2.892,11.416,11.416,0,0,1-.514-3.452,11.419,11.419,0,0,1,.514-3.453,8.643,8.643,0,0,1,1.541-2.9,7.448,7.448,0,0,1,2.584-2.008,8.248,8.248,0,0,1,3.613-.747,8.2,8.2,0,0,1,2.437.367,6.992,6.992,0,0,1,2.155,1.09,6.352,6.352,0,0,1,1.617,1.774,6.02,6.02,0,0,1,.82,2.427h-1.664A5.648,5.648,0,0,0-92.1,210.418Z" transform="translate(236.234 -206.56)" fill="#fff"/>
    <path id="Trazado_172" data-name="Trazado 172" d="M-89.92,212.218a8.588,8.588,0,0,1,1.545-2.9,7.458,7.458,0,0,1,2.582-2.008,8.255,8.255,0,0,1,3.614-.747,8.171,8.171,0,0,1,3.6.747,7.477,7.477,0,0,1,2.57,2.008,8.553,8.553,0,0,1,1.543,2.9,11.475,11.475,0,0,1,.516,3.453,11.471,11.471,0,0,1-.516,3.452,8.423,8.423,0,0,1-1.543,2.892,7.526,7.526,0,0,1-2.57,1.994,8.147,8.147,0,0,1-3.6.749,8.231,8.231,0,0,1-3.614-.749,7.507,7.507,0,0,1-2.582-1.994,8.457,8.457,0,0,1-1.545-2.892,11.526,11.526,0,0,1-.514-3.452A11.53,11.53,0,0,1-89.92,212.218Zm1.531,6.258a7.53,7.53,0,0,0,1.177,2.472,5.887,5.887,0,0,0,2.045,1.751,6.28,6.28,0,0,0,2.988.663A6.208,6.208,0,0,0-79.2,222.7a5.924,5.924,0,0,0,2.033-1.751A7.458,7.458,0,0,0-76,218.476a10.462,10.462,0,0,0,.381-2.8A10.441,10.441,0,0,0-76,212.853a7.5,7.5,0,0,0-1.176-2.46,5.925,5.925,0,0,0-2.033-1.751,6.228,6.228,0,0,0-2.974-.661,6.3,6.3,0,0,0-2.988.661,5.887,5.887,0,0,0-2.045,1.751,7.568,7.568,0,0,0-1.177,2.46,10.58,10.58,0,0,0-.38,2.818A10.6,10.6,0,0,0-88.389,218.476Z" transform="translate(247.146 -206.56)" fill="#fff"/>
    <path id="Trazado_173" data-name="Trazado 173" d="M-72.347,206.77l5.807,15.331,6.023-15.331h2.449v17.488h-1.665V209.146h-.049l-5.974,15.112h-1.569l-5.756-15.112h-.049v15.112h-1.664V206.77Z" transform="translate(258.867 -206.403)" fill="#fff"/>
    <path id="Trazado_174" data-name="Trazado 174" d="M-46.439,206.77v1.421H-56.848v6.319H-47.1v1.421h-9.748v6.907h10.534v1.421h-12.2V206.77Z" transform="translate(271.069 -206.403)" fill="#fff"/>
    <path id="Trazado_175" data-name="Trazado 175" d="M-37.443,206.77a7.637,7.637,0,0,1,2.045.269,4.93,4.93,0,0,1,1.688.821,3.927,3.927,0,0,1,1.153,1.421,4.581,4.581,0,0,1,.429,2.045,4.907,4.907,0,0,1-.857,2.89,3.917,3.917,0,0,1-2.547,1.568v.047a3.89,3.89,0,0,1,1.421.455,2.819,2.819,0,0,1,.917.845,3.44,3.44,0,0,1,.514,1.188,8.691,8.691,0,0,1,.21,1.457q.024.441.049,1.078c.016.425.049.854.1,1.286a8.349,8.349,0,0,0,.233,1.225,2.393,2.393,0,0,0,.429.894H-33.5a2.106,2.106,0,0,1-.233-.6,5.5,5.5,0,0,1-.124-.735c-.023-.252-.044-.5-.061-.749s-.031-.455-.047-.635c-.033-.619-.086-1.237-.159-1.849a5.072,5.072,0,0,0-.465-1.641,2.885,2.885,0,0,0-1.029-1.163,3.117,3.117,0,0,0-1.849-.394h-6.319v7.766h-1.666V206.77Zm-.124,8.3a4.454,4.454,0,0,0,1.447-.233,3.616,3.616,0,0,0,1.2-.674A3.331,3.331,0,0,0-34.1,213.1a3.231,3.231,0,0,0,.306-1.433,3.442,3.442,0,0,0-.932-2.547,3.859,3.859,0,0,0-2.841-.931h-6.219v6.882Z" transform="translate(280.859 -206.403)" fill="#fff"/>
    <path id="Trazado_176" data-name="Trazado 176" d="M-18.934,210.418a4.948,4.948,0,0,0-1.225-1.335,5.536,5.536,0,0,0-1.594-.822,5.942,5.942,0,0,0-1.825-.28,6.306,6.306,0,0,0-2.988.661,5.919,5.919,0,0,0-2.045,1.751,7.526,7.526,0,0,0-1.174,2.46,10.509,10.509,0,0,0-.38,2.818,10.531,10.531,0,0,0,.38,2.8,7.489,7.489,0,0,0,1.174,2.472,5.918,5.918,0,0,0,2.045,1.751,6.285,6.285,0,0,0,2.988.663,5.31,5.31,0,0,0,2.2-.441,5.269,5.269,0,0,0,1.69-1.2,6.15,6.15,0,0,0,1.151-1.776,7.361,7.361,0,0,0,.563-2.192H-16.3a9.425,9.425,0,0,1-.761,2.915,7.2,7.2,0,0,1-1.517,2.2,6.468,6.468,0,0,1-2.194,1.4,7.716,7.716,0,0,1-2.8.49,8.223,8.223,0,0,1-3.613-.749,7.5,7.5,0,0,1-2.584-1.994,8.51,8.51,0,0,1-1.541-2.892,11.416,11.416,0,0,1-.514-3.452,11.419,11.419,0,0,1,.514-3.453,8.642,8.642,0,0,1,1.541-2.9,7.448,7.448,0,0,1,2.584-2.008,8.248,8.248,0,0,1,3.613-.747,8.2,8.2,0,0,1,2.437.367,6.992,6.992,0,0,1,2.155,1.09,6.351,6.351,0,0,1,1.617,1.774,5.994,5.994,0,0,1,.821,2.427h-1.664A5.648,5.648,0,0,0-18.934,210.418Z" transform="translate(291.069 -206.56)" fill="#fff"/>
    <path id="Trazado_177" data-name="Trazado 177" d="M-15,206.77v17.488h-1.666V206.77Z" transform="translate(302.432 -206.403)" fill="#fff"/>
    <path id="Trazado_178" data-name="Trazado 178" d="M-1.071,206.77l6.858,17.488H4l-2.131-5.439h-7.96L-8.2,224.258H-9.962l7.028-17.488ZM1.3,217.4l-3.38-8.964-3.5,8.964Z" transform="translate(307.458 -206.403)" fill="#fff"/>
    <path id="Trazado_179" data-name="Trazado 179" d="M6.376,206.77v16.067h9.8v1.421H4.71V206.77Z" transform="translate(318.455 -206.403)" fill="#fff"/>
  </g>
</svg>
