<svg xmlns="http://www.w3.org/2000/svg" width="140" height="140" viewBox="0 0 140 140">
  <g id="Grupo_19" data-name="Grupo 19" transform="translate(-890 -737)">
    <circle id="Elipse_1" data-name="Elipse 1" cx="70" cy="70" r="70" transform="translate(890 737)" fill="#004089"/>
    <path id="Icon_metro-file-pdf" data-name="Icon metro-file-pdf" d="M69.874,19.625a10.668,10.668,0,0,1,2.2,3.484,10.581,10.581,0,0,1,.917,4.035V79.96a4.383,4.383,0,0,1-4.4,4.4H6.972a4.244,4.244,0,0,1-3.118-1.284A4.244,4.244,0,0,1,2.571,79.96V6.6A4.244,4.244,0,0,1,3.854,3.487,4.244,4.244,0,0,1,6.972,2.2H48.051a10.584,10.584,0,0,1,4.035.917,10.668,10.668,0,0,1,3.484,2.2ZM49.518,8.439V25.677H66.757a5.009,5.009,0,0,0-1.009-1.88L51.4,9.447a5.008,5.008,0,0,0-1.88-1.009ZM67.123,78.493V31.546H48.051a4.383,4.383,0,0,1-4.4-4.4V8.072H8.439V78.493H67.124ZM43.558,51.306a34.883,34.883,0,0,0,3.851,2.567,45.5,45.5,0,0,1,5.364-.321q6.74,0,8.115,2.247a2.216,2.216,0,0,1,.092,2.384.132.132,0,0,1-.046.092l-.092.092v.046q-.275,1.742-3.255,1.742a18.912,18.912,0,0,1-5.272-.917,33.431,33.431,0,0,1-5.96-2.43,82.555,82.555,0,0,0-17.972,3.805q-7.015,12.012-11.1,12.012A2.666,2.666,0,0,1,16,72.3l-1.1-.55q-.046-.046-.275-.229a1.9,1.9,0,0,1-.275-1.65,9.956,9.956,0,0,1,2.567-4.2,22.157,22.157,0,0,1,6.052-4.424.669.669,0,0,1,1.054.275.264.264,0,0,1,.092.183q2.384-3.9,4.906-9.032a69.975,69.975,0,0,0,4.768-12.012,37.061,37.061,0,0,1-1.4-7.313,17.826,17.826,0,0,1,.3-5.845q.5-1.834,1.926-1.834h1.009a1.933,1.933,0,0,1,1.6.688,3.662,3.662,0,0,1,.413,3.118.994.994,0,0,1-.183.367,1.193,1.193,0,0,1,.046.367v1.375a60.036,60.036,0,0,1-.642,8.8q2.522,7.519,6.694,10.912ZM17.15,70.149q2.384-1.1,6.281-7.244a26.135,26.135,0,0,0-4.012,3.851A15.239,15.239,0,0,0,17.15,70.149ZM35.4,27.97a13.633,13.633,0,0,0-.092,6.052q.046-.321.321-2.017,0-.138.321-1.971a1.032,1.032,0,0,1,.183-.367.132.132,0,0,1-.046-.092.093.093,0,0,0-.023-.069.093.093,0,0,1-.023-.069,2.639,2.639,0,0,0-.6-1.65.132.132,0,0,1-.046.092v.092Zm-5.685,30.3a67.247,67.247,0,0,1,13.021-3.714,6.914,6.914,0,0,1-.6-.436,8.212,8.212,0,0,1-.734-.619,24.285,24.285,0,0,1-5.822-8.069,61.266,61.266,0,0,1-3.805,9.032q-1.375,2.567-2.063,3.805Zm29.617-.734q-1.1-1.1-6.419-1.1A17.342,17.342,0,0,0,58.6,57.724a4.446,4.446,0,0,0,.825-.046q0-.046-.092-.138Z" transform="translate(922.429 763.718)" fill="#fff"/>
  </g>
</svg>
