<svg xmlns="http://www.w3.org/2000/svg" width="141" height="140" viewBox="0 0 141 140">
  <g id="video-yellow" transform="translate(-1103 -737)">
    <ellipse id="Elipse_2" data-name="Elipse 2" cx="70.5" cy="70" rx="70.5" ry="70" transform="translate(1103 737)" fill="#ffb600"/>
    <path id="Icon_material-ondemand-video" data-name="Icon material-ondemand-video" d="M92.787,4.5H10.629A9.1,9.1,0,0,0,1.5,13.629V68.4a9.126,9.126,0,0,0,9.129,9.129H33.45v9.129H69.965V77.529H92.787A9.116,9.116,0,0,0,101.87,68.4l.046-54.772A9.126,9.126,0,0,0,92.787,4.5Zm0,63.9H10.629V13.629H92.787ZM69.965,41.015,38.015,59.272V22.757Z" transform="translate(1121.941 761.421)" fill="#fff"/>
  </g>
</svg>
