<svg id="Capa_1" data-name="Capa 1" xmlns="http://www.w3.org/2000/svg" xmlns:xlink="http://www.w3.org/1999/xlink" viewBox="0 0 1280 690"><defs><style>.cls-1{fill:none;}.cls-2{clip-path:url(#clip-path);}.cls-3{fill:#e2aa02;}.cls-4{fill:#c89602;}.cls-5{fill:#fff;}</style><clipPath id="clip-path"><rect class="cls-1" width="1280" height="690"/></clipPath></defs><title>code_red_bg</title><g class="cls-2"><polygon class="cls-3" points="1280 433.55 0 667.55 0 258 1280 24 1280 433.55"/><path class="cls-4" d="M1280,24V433.55L0,667.55V258L1280,24m22-26.39-26,4.75L-4,236.36l-18,3.3V693.93l26-4.74,1280-234,18-3.3V-2.39Z"/></g><path class="cls-5" d="M180.16,173.54a2,2,0,0,0-1.32-.5h-.16a2.05,2.05,0,0,0-1.39.73,22.56,22.56,0,0,1-5.16,4.67,15.78,15.78,0,0,1-5.77,2.33,17.81,17.81,0,0,1-3.14.29,16.16,16.16,0,0,1-3.6-.41,17.27,17.27,0,0,1-6-2.63,18,18,0,0,1-4.56-4.68,16.07,16.07,0,0,1-2.49-6.18,16.9,16.9,0,0,1,.12-6.8,17.11,17.11,0,0,1,2.59-6,17.64,17.64,0,0,1,4.65-4.54,16.36,16.36,0,0,1,6.26-2.5,16.9,16.9,0,0,1,3.08-.29,18.68,18.68,0,0,1,7.82,1.81,2,2,0,0,0,.83.18,2,2,0,0,0,1.52-.69l2.57-3a2,2,0,0,0,.45-1.72,2,2,0,0,0-1.1-1.4,33.47,33.47,0,0,0-8.4-2.74,24.26,24.26,0,0,0-4.2-.37,22.32,22.32,0,0,0-4,.36,24.4,24.4,0,0,0-9.22,3.69A25,25,0,0,0,139,158.64a25.13,25.13,0,0,0,3.49,19.06,24.87,24.87,0,0,0,6.63,6.81,25.91,25.91,0,0,0,8.71,3.86,23.18,23.18,0,0,0,5.44.64,25,25,0,0,0,4.52-.42,24.06,24.06,0,0,0,8.61-3.35,30.83,30.83,0,0,0,7-6.22,2,2,0,0,0-.21-2.78Zm-17.35-32.41h0c-.42,0-.82,0-1.24.05C162,141.16,162.4,141.13,162.81,141.13Zm.47,45.88h0Z"/><path class="cls-5" d="M225.87,142.84a24.92,24.92,0,0,0-6.64-6.85,25.52,25.52,0,0,0-8.7-3.83,24.23,24.23,0,0,0-5.37-.61h0a25.4,25.4,0,0,0-4.48.41c-.42.08-.83.16-1.24.26l.15-.17,2.6-2.81,3.85-4.16,2.41-2.61a2,2,0,0,0-1.47-3.35,2.19,2.19,0,0,0-.36,0l-2.76.54c-.87.18-1.77.36-2.66.52a2,2,0,0,0-1.11.61l-6.32,6.77a2.05,2.05,0,0,0-.52,1.1l-.76,5.69a2.07,2.07,0,0,0,0,.61c-.36.21-.71.43-1.06.67a25.23,25.23,0,0,0-6.83,6.67,25.56,25.56,0,0,0-3.81,8.75,24.88,24.88,0,0,0,3.49,19.08,25,25,0,0,0,15.42,10.66,24,24,0,0,0,5.35.6,25.61,25.61,0,0,0,4.59-.42,24.1,24.1,0,0,0,9.15-3.68,25.32,25.32,0,0,0,6.78-6.67,25.11,25.11,0,0,0,.29-27.81Zm-20.71-9.29h0Zm-.1,45.87h0Zm16.6-19.23a16.89,16.89,0,0,1-2.58,5.93,17.45,17.45,0,0,1-4.66,4.56,16.17,16.17,0,0,1-6.2,2.49,17.15,17.15,0,0,1-3.16.3,15.86,15.86,0,0,1-3.63-.42,17,17,0,0,1-10.55-7.24,16.93,16.93,0,0,1-2.38-13,17,17,0,0,1,7.3-10.52,16.73,16.73,0,0,1,6.31-2.51,16.91,16.91,0,0,1,3.06-.28,16.27,16.27,0,0,1,3.62.41,17.43,17.43,0,0,1,6,2.61,17.22,17.22,0,0,1,6.9,17.66Z"/><path class="cls-5" d="M270.59,134.81a25.32,25.32,0,0,0-6.55-6.7,24.68,24.68,0,0,0-8.55-3.79,22.73,22.73,0,0,0-5.27-.61h0a25,25,0,0,0-4.44.41l-13.72,2.51a2.08,2.08,0,0,0-1.29.83,2,2,0,0,0-.32,1.5l8.1,44.23a2,2,0,0,0,2,1.64l.36,0,13.72-2.52a23.56,23.56,0,0,0,9-3.62A24.66,24.66,0,0,0,274,153.56a24.31,24.31,0,0,0-3.43-18.75Zm-20.37-9.1h0Zm16.11,26.11a17,17,0,0,1-2.58,5.81,16.47,16.47,0,0,1-10.66,6.84l-7.85,1.44-6-32.51,7.85-1.44a16.4,16.4,0,0,1,3-.28,16.19,16.19,0,0,1,3.53.4A16.77,16.77,0,0,1,264,139.2a16.37,16.37,0,0,1,2.31,12.62Z"/><path class="cls-5" d="M281.44,119.62a2,2,0,0,0-2-1.64,1.47,1.47,0,0,0-.36,0l-3.83.7a2,2,0,0,0-1.6,2.32l8.09,44.23a2,2,0,0,0,2,1.64,2.19,2.19,0,0,0,.36,0l3.83-.7a2,2,0,0,0,1.28-.83,2,2,0,0,0,.32-1.5Z"/><path class="cls-5" d="M339.4,130.46l-.16-.9c-.09-.47-.19-.86-.29-1.2l-.09-.46c0-.2-.1-.5-.2-.89a5,5,0,0,1-.12-.5,2,2,0,0,0-2-1.64l-.35,0-19.73,3.62a2,2,0,0,0-1.61,2.32l.71,3.9a2,2,0,0,0,.83,1.28,2.05,2.05,0,0,0,1.14.36,1.47,1.47,0,0,0,.36,0l14-2.56a23.27,23.27,0,0,1,.05,2.39,34.89,34.89,0,0,1-.32,3.94,17.67,17.67,0,0,1-2,4.57,19.17,19.17,0,0,1-3.09,3.9,17,17,0,0,1-3.84,2.82,14.38,14.38,0,0,1-4.29,1.52,16.24,16.24,0,0,1-2.85.26,15.92,15.92,0,0,1-3.55-.41,17.44,17.44,0,0,1-10.54-7.23,16.13,16.13,0,0,1-2.54-6.3,16.5,16.5,0,0,1,.11-6.49,18,18,0,0,1,2.51-6,17.16,17.16,0,0,1,4.58-4.69,15.79,15.79,0,0,1,6.22-2.55,12.32,12.32,0,0,1,2.29-.19c.38,0,.79,0,1.21,0a24.92,24.92,0,0,1,4.63.82,1.86,1.86,0,0,0,.52.07,2,2,0,0,0,1-.3,2,2,0,0,0,.91-1.29l.85-4a2,2,0,0,0-1.49-2.36,32.85,32.85,0,0,0-6.08-.91l-1.17,0a24.09,24.09,0,0,0-4.22.37,23.55,23.55,0,0,0-8.92,3.64,25.76,25.76,0,0,0-6.79,6.7,26.06,26.06,0,0,0-3.88,8.79,24.12,24.12,0,0,0-.23,9.91,23.66,23.66,0,0,0,3.68,9.06,26.26,26.26,0,0,0,6.65,6.81,25.66,25.66,0,0,0,8.71,3.94,23.49,23.49,0,0,0,5.46.65,23.76,23.76,0,0,0,4.34-.4,23.33,23.33,0,0,0,6.61-2.27,25.83,25.83,0,0,0,5.73-4,26.18,26.18,0,0,0,4.52-5.59,24.62,24.62,0,0,0,2.82-6.88s0-.05,0-.08a24.78,24.78,0,0,0,.42-5.39,38.09,38.09,0,0,0-.57-5.72Zm-24.29-17.19,1.08,0-1.16,0Zm.46,45.87h0Z"/><path class="cls-5" d="M386.49,113.44a24.92,24.92,0,0,0-6.64-6.85,25.27,25.27,0,0,0-8.71-3.83,23.73,23.73,0,0,0-5.37-.62h0a25.4,25.4,0,0,0-4.48.41,24.58,24.58,0,0,0-9.24,3.7,24.93,24.93,0,0,0-10.64,15.43,24.81,24.81,0,0,0,3.5,19.07,24.92,24.92,0,0,0,15.41,10.66,24.05,24.05,0,0,0,5.35.61,25.83,25.83,0,0,0,4.6-.43,24.06,24.06,0,0,0,9.14-3.68,25.44,25.44,0,0,0,6.78-6.66,25.14,25.14,0,0,0,.3-27.81Zm-20.72-9.3H366c-.13,0-.25,0-.38,0Zm-.1,45.88h0Zm16.6-19.24a17,17,0,0,1-2.58,5.94,17.37,17.37,0,0,1-4.65,4.55,16.21,16.21,0,0,1-6.21,2.49,17.15,17.15,0,0,1-3.16.3,16.43,16.43,0,0,1-3.63-.41,17,17,0,0,1-10.55-7.25,16.91,16.91,0,0,1-2.38-13,17,17,0,0,1,7.3-10.51,17.17,17.17,0,0,1,9.37-2.8,16.27,16.27,0,0,1,3.62.41,17.63,17.63,0,0,1,6,2.61,17.16,17.16,0,0,1,6.9,17.66Z"/><path class="cls-5" d="M445.29,122.72,443,120.64l-1.05-1-1.6-1.43a15,15,0,0,0,1.45-1.54,15.76,15.76,0,0,0,2.35-3.89,14.8,14.8,0,0,0,1.11-4.48,17.2,17.2,0,0,0-.22-4.59,15.19,15.19,0,0,0-2.26-5.62,17,17,0,0,0-4.13-4.36,16.22,16.22,0,0,0-5.49-2.59,14,14,0,0,0-3.6-.46,15,15,0,0,0-2.8.26L414.08,93.3a2.08,2.08,0,0,0-1.29.83,2,2,0,0,0-.32,1.5l8.1,44.23a2,2,0,0,0,2,1.64,2.19,2.19,0,0,0,.36,0l3.83-.7a2,2,0,0,0,1.6-2.33l-2.72-14.88,7.2-1.32,15.37,13.81a2,2,0,0,0,1.34.51,2.19,2.19,0,0,0,.36,0l4.9-.9a2,2,0,0,0,1-3.45Zm-15.76-30h.18a8,8,0,0,0-.85,0Zm7.7,15.7a7.8,7.8,0,0,1-1.15,2.79,7.81,7.81,0,0,1-5.05,3.26l-6.86,1.25-2.86-15.66,6.85-1.26a8.08,8.08,0,0,1,1.46-.13,7.34,7.34,0,0,1,1.68.19,7.52,7.52,0,0,1,2.73,1.22,8.53,8.53,0,0,1,2.09,2.22,8,8,0,0,1,1.14,2.93A8.15,8.15,0,0,1,437.23,108.43Z"/><path class="cls-5" d="M488.36,123.42a2,2,0,0,0-.83-1.28,2,2,0,0,0-1.14-.35,2.19,2.19,0,0,0-.36,0l-21.32,3.9-3-16.2,12.73-2.33a2,2,0,0,0,1.61-2.33l-.71-3.89a2,2,0,0,0-.83-1.29,2,2,0,0,0-1.14-.35,2.19,2.19,0,0,0-.36,0l-12.73,2.33-1.55-8.48,19.84-3.63a2.05,2.05,0,0,0,1.29-.83,2,2,0,0,0,.32-1.5l-.71-3.89a2,2,0,0,0-2-1.64l-.36,0-25.64,4.7a2,2,0,0,0-1.61,2.32L458,133a2,2,0,0,0,2,1.64l.36,0,27.12-5a2,2,0,0,0,1.6-2.33Z"/><path class="cls-5" d="M525.43,97.84a23.78,23.78,0,0,0-3.62-9,25.47,25.47,0,0,0-6.55-6.7,24.68,24.68,0,0,0-8.55-3.79,22.79,22.79,0,0,0-5.27-.61,25,25,0,0,0-4.44.41l-13.72,2.51a2.05,2.05,0,0,0-1.29.83,2,2,0,0,0-.32,1.5l8.1,44.23a2,2,0,0,0,2,1.64,2.31,2.31,0,0,0,.37,0l13.72-2.51a23.69,23.69,0,0,0,9-3.63,24.62,24.62,0,0,0,10.42-15.1A23.71,23.71,0,0,0,525.43,97.84Zm-24-18.13h.2c-.12,0-.24,0-.37,0Zm16.11,26.11a17,17,0,0,1-2.58,5.81,16.47,16.47,0,0,1-10.66,6.84l-7.85,1.44-6-32.51L498.36,86a17.29,17.29,0,0,1,3-.28,15.63,15.63,0,0,1,3.54.41,16.73,16.73,0,0,1,5.85,2.56,17,17,0,0,1,4.48,4.55,16.49,16.49,0,0,1,2.31,12.62Z"/></svg>