<svg id="Instagram" xmlns="http://www.w3.org/2000/svg" width="47.233" height="47.18" viewBox="0 0 47.233 47.18">
  <path id="Trazado_579" data-name="Trazado 579" d="M37,17.33H25.31a6,6,0,0,0-6,6V35a6,6,0,0,0,6,6H37a6,6,0,0,0,6-6V23.35a6,6,0,0,0-6-6.02Zm-5.71,19a5.379,5.379,0,1,1-.03.04ZM38.9,23.18a1.266,1.266,0,1,1-.03.04Z" transform="translate(-7.46 -5.59)" fill="#e0a801"/>
  <path id="Trazado_580" data-name="Trazado 580" d="M31.26,24.57a4.61,4.61,0,1,0,4.61,4.61,4.61,4.61,0,0,0-4.61-4.61Z" transform="translate(-7.46 -5.59)" fill="#e0a801"/>
  <path id="Trazado_581" data-name="Trazado 581" d="M36.74,6.36c-9.23-2.22-17.18.39-23.57,7.45A22.54,22.54,0,0,0,7.64,25.92c-.07.46-.12.91-.18,1.36v3.87c.14.92.25,1.84.43,2.76A23.66,23.66,0,0,0,27.71,52.59l1.46.18h3.68c1-.15,1.94-.25,2.9-.44a23.57,23.57,0,0,0,1-46Zm9,28.65A8.77,8.77,0,0,1,37,43.78H25.31A8.77,8.77,0,0,1,16.54,35V23.35a8.77,8.77,0,0,1,8.77-8.77H37a8.77,8.77,0,0,1,8.77,8.77Z" transform="translate(-7.46 -5.59)" fill="#e0a801"/>
</svg>
