<svg xmlns="http://www.w3.org/2000/svg" width="47.144" height="47.177" viewBox="0 0 47.144 47.177">
  <g id="Grupo_285" data-name="Grupo 285" transform="translate(-1336.462 -3.287)">
    <path id="Trazado_578" data-name="Trazado 578" d="M1361.855,50.464h-3.68c-.485-.059-.971-.109-1.455-.18A23.659,23.659,0,0,1,1336.9,31.6c-.187-.911-.292-1.839-.435-2.759V24.979c.059-.454.111-.908.178-1.36a22.549,22.549,0,0,1,5.536-12.115c6.384-7.056,14.337-9.668,23.571-7.446a23.573,23.573,0,0,1-.991,45.965C1363.8,50.216,1362.823,50.319,1361.855,50.464Zm-5.431-28.67c0,.394,0,.77,0,1.145q-.013,6.921-.028,13.842c0,.567-.005,1.135-.023,1.7-.01.335.124.475.463.456s.675,0,1.012,0c1.241,0,2.483-.009,3.725.006.341,0,.483-.117.453-.455-.012-.137,0-.275,0-.413q0-4.369,0-8.738a3.551,3.551,0,0,1,.778-2.394,3.023,3.023,0,0,1,3.083-1.081A2.577,2.577,0,0,1,1367.953,28a5.741,5.741,0,0,1,.18,1.314c.017,3.02.012,6.04.016,9.06,0,.537.017.554.537.554q2.277,0,4.553,0c.555,0,.56,0,.56-.569,0-3.143.011-6.285-.01-9.428a12.625,12.625,0,0,0-.19-2.145c-.6-3.352-2.781-5.193-5.661-5.413a5.764,5.764,0,0,0-5.539,2.384c-.079.11-.179.2-.269.307l-.106-.051c0-.58,0-1.16,0-1.739,0-.49-.026-.514-.527-.516q-2.3,0-4.6,0C1356.762,21.764,1356.626,21.781,1356.424,21.794Zm-8.935,8.52q0,4.025,0,8.048c0,.554.022.571.567.572q2.23,0,4.461,0c.588,0,.592,0,.593-.586q0-7.979,0-15.958c0-.62-.006-.626-.606-.627q-2.186,0-4.369,0c-.634,0-.646.011-.647.641Q1347.486,26.36,1347.489,30.314Zm2.865-11.02c.152-.012.366-.021.579-.045a2.9,2.9,0,0,0,.5-5.661,3.971,3.971,0,0,0-1.907-.08,2.882,2.882,0,0,0-2.292,3.584A2.952,2.952,0,0,0,1350.354,19.294Z" fill="#e2aa02"/>
  </g>
</svg>
