<svg xmlns="http://www.w3.org/2000/svg" width="64" height="64" viewBox="0 0 64 64">
  <g id="botón_whats" data-name="botón whats" transform="translate(-1137 -334)">
    <circle id="Elipse_8" data-name="Elipse 8" cx="32" cy="32" r="32" transform="translate(1137 334)" fill="#25d366"/>
    <path id="Icon_awesome-whatsapp" data-name="Icon awesome-whatsapp" d="M33.473,7.971a19.515,19.515,0,0,0-30.7,23.543L0,41.62,10.343,38.9a19.45,19.45,0,0,0,9.324,2.373h.009A19.7,19.7,0,0,0,39.37,21.768a19.586,19.586,0,0,0-5.9-13.8ZM19.676,37.99a16.186,16.186,0,0,1-8.261-2.258l-.589-.352L4.693,36.988,6.327,31l-.387-.615a16.247,16.247,0,1,1,30.134-8.621A16.4,16.4,0,0,1,19.676,37.99Zm8.893-12.145c-.483-.246-2.882-1.424-3.331-1.582s-.773-.246-1.1.246-1.257,1.582-1.547,1.916-.571.369-1.055.123c-2.865-1.432-4.745-2.557-6.635-5.8-.5-.861.5-.8,1.432-2.663a.9.9,0,0,0-.044-.852c-.123-.246-1.1-2.645-1.5-3.621-.4-.949-.8-.817-1.1-.835-.281-.018-.606-.018-.932-.018a1.806,1.806,0,0,0-1.3.606,5.478,5.478,0,0,0-1.7,4.069,9.55,9.55,0,0,0,1.986,5.044c.246.325,3.436,5.246,8.331,7.364,3.093,1.336,4.306,1.45,5.853,1.222.94-.141,2.882-1.178,3.287-2.32a4.077,4.077,0,0,0,.281-2.32C29.378,26.206,29.053,26.083,28.569,25.845Z" transform="translate(1149.315 344.065)" fill="#fff"/>
  </g>
</svg>
